<?xml version="1.0" encoding="UTF-8"?>
<svg width="222px" height="290px" viewBox="0 0 222 290" version="1.1" xmlns="http://www.w3.org/2000/svg" xmlns:xlink="http://www.w3.org/1999/xlink">
    <!-- Generator: Sketch 46.2 (44496) - http://www.bohemiancoding.com/sketch -->
    <title>AboutPersonGraphic</title>
    <desc>Created with Sketch.</desc>
    <defs>
        <path d="M184.5,86.7386368 C184.905095,86.5504652 185.238945,86.3293625 186.415708,85.8299551 C187.59247,85.3305477 188.221248,85.5124916 188.529157,85.640986 C188.837067,85.7694805 189.140293,86.2636928 188.930441,86.5543703 C188.720588,86.8450477 188.280047,87.1210786 187.632557,87.5301993 C186.985068,87.9393201 186.659218,88.0748992 185.760592,88.5" id="path-1"></path>
        <path d="M0.5,0.0500030518 L1.21509832,0.61554526 C1.29568289,0.879987962 1.34573253,1.05977901 1.36524727,1.15491841 C1.46874282,1.65948604 1.47473379,1.93818075 1.48567335,2.14110381 C1.49970699,2.40142049 1.49970699,2.71692982 1.48567335,3.0876318 L0.955346294,3.0876318 C1.06070738,2.71948822 1.11338792,2.40397889 1.11338792,2.14110381 C1.11338792,1.87822873 1.06070738,1.54950026 0.955346294,1.15491841 L0.5,0.0500030518 Z" id="path-2"></path>
        <path d="M1,0.528452091 L1.31118065,0.632238526 C1.37395941,0.658656885 1.41883767,0.68272738 1.44581541,0.70445001 C1.48657286,0.737268142 1.49321835,0.739557768 1.55530788,0.829666844 C1.65021592,0.967404656 1.53562829,0.829666844 1.74534461,1.50278905 C1.76516847,1.56641731 1.8519031,1.94703736 1.8487285,2.10500022 C1.84727249,2.17744877 1.74290575,2.51516948 1.53562829,3.11816235 L1.2195406,3.11816235 C1.38482244,2.5103381 1.46024738,2.13398304 1.44581541,1.98909718 C1.43138344,1.84421132 1.4057433,1.68210861 1.36889498,1.50278905 C1.32060568,1.31792858 1.27082088,1.18457951 1.2195406,1.10274185 C1.16826031,1.02090419 1.09508011,0.829474271 1,0.528452091 Z" id="path-3"></path>
        <path d="M0.94400265,3.0616261 C1.08561692,3.00495608 1.18895584,2.98115026 1.25401941,2.99020865 C1.35161476,3.00379623 1.46437063,3.01927741 1.53184585,3.09499035 C1.59932107,3.17070329 1.61705269,3.46552414 1.60266839,3.72120928 C1.59307886,3.89166605 1.50199612,4.2656368 1.32942018,4.84312156 C1.26541907,4.80663064 1.17430115,4.76797028 1.05606643,4.72714046 C0.937831711,4.68631065 0.804379315,4.67569899 0.655709243,4.69530547 C0.691421437,4.13989214 0.726694034,3.76110061 0.761527033,3.55893088 C0.796360032,3.35676115 0.857185237,3.19099289 0.94400265,3.0616261 Z" id="path-4"></path>
        <path d="M0.649315614,4.63405714 C0.739193611,4.5971188 0.853216185,4.58240239 0.991383338,4.58990792 C1.12955049,4.59741344 1.24769481,4.65698779 1.3458163,4.76863096 L1.22320598,6.18984304 C1.07631584,6.12850659 0.961595791,6.08970076 0.879045835,6.07342556 C0.796495879,6.05715036 0.680415839,6.07558696 0.530805713,6.12873537 L0.649315614,4.63405714 Z" id="path-5"></path>
    </defs>
    <g id="Page-1" stroke="none" stroke-width="1" fill="none" fill-rule="evenodd">
        <g id="AboutPersonGraphic">
            <path d="M82.5,79.8265144 C84.1518515,79.4913908 85.3211904,79.2387971 86.0080169,79.0687333 C86.6275794,78.9153246 94.3475669,76.7427047 106.101278,79.0687333 C106.61284,79.16997 107.745747,79.3438221 109.5,79.5902896 L109.5,93 L82.5,93 L82.5,79.8265144 Z" id="Collarbone-area" fill="#E8BD9F"></path>
            <rect id="Neck" fill="#E8BD9F" x="89.5" y="69" width="13.5" height="24"></rect>
            <path d="M121.480685,81.1595106 L124.168092,80.5 C124.75475,84.1197252 125.063081,86.8639369 125.093086,88.732635 C125.113829,90.0245037 126.785252,93.4014691 125.538242,99.1851889 C125.167042,100.90684 123.412431,104.178443 120.274409,109 L119.726376,97.2738738 C114.727521,98.6416911 111.993526,99.2787961 111.52439,99.1851889 C111.105614,99.1016299 116.218186,96.8655633 116.218186,96.7628427 C116.218186,96.4875127 117.722521,95.8097065 120.731193,94.7294242 L121.480685,81.1595106 Z" id="Right-armpit" fill="#E8BD9F" transform="translate(118.750000, 94.750000) scale(-1, 1) translate(-118.750000, -94.750000) "></path>
            <g id="Right-hair-back" transform="translate(103.000000, 59.500000)" fill="#4A4A4A">
                <path d="M3.5,2.84587445 L11.728561,0 C12.3398325,2.70987238 12.5878353,4.89796655 12.4725694,6.5642825 C12.3877111,7.79101842 12.816424,8.37750662 11.728561,12.3252476 C11.3653477,13.6433104 9.44265435,16.8298611 9.13113156,18.5462744 C9.10831367,18.6719954 8.06539662,17.3300357 8,16.7401876 C7.86386457,15.5123073 8.29976743,14.37298 8,15.0660587 C7.90332145,15.2895848 7.77526205,16.6061006 7.42123211,17.258377 C7.26083775,17.5538928 6.92838851,18.1344338 6.42388438,19 C6.5939409,17.457351 6.5939409,16.4629381 6.42388438,16.0167612 C6.14920778,15.2960928 4.98336767,14.4629942 4.86733661,13.861358 C4.64355063,12.7009984 4.18777176,9.02917056 3.5,2.84587445 Z" id="Rectangle-20"></path>
                <path d="M2,9.5 L5.20852195,9.5 L6,13.5527648 C5.08546431,14.2218026 4.5020918,14.7417908 4.24988246,15.1127292 C3.65384679,15.9893524 3.57528913,17.8256836 3.56796529,17.8662747 C3.55599287,17.9326296 3.63269148,18.310538 3.79806113,19 C3.45299098,18.4917632 3.17415708,18.1138547 2.96155944,17.8662747 C2.46154759,17.283987 2.42121931,16.7719908 2.34322138,16.4637566 C2.21547811,15.9589373 2.10107099,13.6376852 2,9.5 Z" id="Rectangle-22"></path>
                <path d="M3.90572295,13 L7.5,13 L7.5,15.4286022 C7.13569553,16.7146454 6.81856191,17.5965426 6.54859914,18.0742938 C6.27863636,18.552045 5.82941863,19.0263545 5.20094593,19.4972221 C4.95954543,18.367749 4.95954543,17.3739167 5.20094593,16.5157249 C5.21350945,16.471061 5.15976949,16.8956643 5.07642912,17.4376596 C4.93777117,18.3394069 4.71717688,19.5661045 4.58367886,19.4972221 C4.43556005,19.4207956 4.33761885,19.0460445 4.22836127,18.3477725 C4.18435746,18.0665414 3.55308166,17.7120736 3.50455877,17.3916958 C3.44614553,17.0060158 3.96955003,16.666166 3.90572295,16.5157249 C3.72186756,16.082376 3.72186756,14.9104677 3.90572295,13 Z" id="Rectangle-23"></path>
                <path d="M0.544360936,9.36885373 L4,9.36885373 C3.3079774,11.936877 2.96196611,14.0883194 2.96196611,15.8231811 C2.96196611,17.075233 2.27640364,17.9668176 2.00481881,18.7099883 C1.7549679,19.3936858 1.54110688,18.8685296 1.36323574,17.1345197 L0.00963762771,18.9933104 C-0.0211797492,14.8729042 0.0219093435,11.7598025 0.138904906,9.65400556 C0.255900468,7.54820859 0.391052478,7.45315798 0.544360936,9.36885373 Z" id="Rectangle-21"></path>
            </g>
            <path d="M77.1224956,81.2529772 L80.1480875,80.5 C81.130621,83.9732865 81.6377587,86.6397813 81.6695006,88.4994844 C81.6914444,89.7851345 82.6083446,93.426106 81.289126,99.1819855 C80.8964317,100.895349 79.1498884,104.001354 76.0494959,108.5 L75.5,97.1659386 L77.1224956,81.2529772 Z" id="Left-armpit" fill="#E8BD9F"></path>
            <g id="Left-hair-back" transform="translate(78.500000, 62.000000)" fill="#4A4A4A">
                <path d="M4,7 L10.8194657,7 L11,16.1808251 C9.78289623,15.8498669 9.01087101,15.5701154 8.68392433,15.3415707 C8.64566899,15.3148292 8.40203518,15.3371786 8.31758055,15.5898744 C8.26436732,15.7490931 8.37697038,16.2076607 8.31758055,16.1808251 C8.05123507,16.0604754 8.00963624,16.0019344 7.86228921,15.6745884 C7.78215703,15.4965668 7.6809454,15.1429866 7.62801358,15.0566152 C7.35475424,14.6107252 7.48524698,13.5296763 7.40973287,13.5350343 C7.28540041,13.5438562 7.55054421,15.0994096 7.40973287,15.3415707 C7.25603392,15.6058954 6.89316778,15.9920384 6.32113445,16.5 L4,7 Z" id="Rectangle-19"></path>
                <path d="M0.741517014,0 L3.87998392,3.84876999 C3.60820289,4.88205468 3.51925408,5.63825619 3.6131375,6.11737452 C3.9484748,7.82871246 4.9092487,9.26088365 4.97326772,10.2646994 C5.06417156,11.6900682 4.9232347,13.0557568 4.55045714,14.361765 L3.6131375,17 C3.26526736,15.3818325 2.9350505,14.2318086 2.62248694,13.5499283 C1.65355692,11.4361364 0.379687972,9.82179646 0.156411631,8.5 C-0.174903545,6.53861338 0.0201315823,3.70528004 0.741517014,0 Z" id="Rectangle-16"></path>
                <path d="M3,4 L6.43013036,7.3984545 C6.88925507,7.26420093 7.07095383,7.52974475 6.97522665,8.19508597 C6.96259087,8.28290952 5.64195176,9.91930505 5.61961631,10.0148999 C5.55660012,10.2846065 5.30789304,10.7877066 5.30789304,11.583096 C5.30789304,12.6081774 4.72152446,13.4112655 4.58143354,14.2988591 C4.4880396,14.8905883 4.60693512,15.7909685 4.93812012,17 C4.34031188,16.0544411 4.00045858,15.3069938 3.91856022,14.7576581 C3.83666187,14.2083224 3.53047513,10.6224363 3,4 Z" id="Rectangle-17"></path>
                <path d="M4.77011589,6.5 L9.5,8.88683756 L7.92827304,10.0954659 C7.16652032,12.5119939 6.71291417,13.8389754 6.56745459,14.0764105 C5.62793471,15.6099982 4.99811687,17.0497221 4.99236532,16.9986823 C4.98900963,16.9689036 5.09680571,15.4834146 4.99236532,14.0764105 C4.97352857,13.8226449 4.09916602,12.1397466 4.03639953,11.7501216 C3.90051506,10.9066142 4.14508718,9.15657372 4.77011589,6.5 Z" id="Rectangle-18"></path>
            </g>
            <polygon id="Grad-cap-mortar-board" fill="#000000" transform="translate(96.250000, 29.250000) rotate(-42.000000) translate(-96.250000, -29.250000) " points="72.5 5.5 110.990023 12.2993475 120 53 81.6229104 46.461644"></polygon>
            <g id="Alexandra-head" transform="translate(77.000000, 31.500000)">
                <path d="M19.2208139,44.5 C25.9216445,44.5 32.9806025,37.1170902 34.1668034,35.667921 C37.0059069,32.1994179 39,27.3950848 39,22.25 C39,9.96166432 30.7480662,0 19.2208139,0 C7.69356164,0 0,9.96166432 0,22.25 C0,27.3091511 1.81635146,32.1513581 4.40506549,35.667921 C5.3318691,36.9269103 12.439372,44.5 19.2208139,44.5 Z" id="Face" fill="#E8BD9F"></path>
                <path d="M26.2660526,13.9687558 C27.2955315,13.5147666 27.7460812,13.4669558 29.2035251,13.5147666 C29.7631189,13.5331238 30.8619439,13.6844535 32.5,13.9687558 L32.5,14.8087748 C30.6012389,14.431544 29.2841746,14.2429287 28.5488069,14.2429287 C27.8134392,14.2429287 26.6305036,14.6619524 25,15.5 C25.0014608,14.8507368 25.4234783,14.3403221 26.2660526,13.9687558 Z" id="Right-Eyebrow" fill="#4A4A4A" transform="translate(28.750000, 14.500000) scale(-1, 1) translate(-28.750000, -14.500000) "></path>
                <path d="M15.6701507,31.5 C15.653687,31.5301408 15.6379618,31.5605631 15.6229938,31.591258 C15.4703623,31.904261 15.5029092,32.2732048 15.5029092,32.6270132 C15.5029092,34.21372 17.1811901,35.5 19.2514546,35.5 C21.3217191,35.5 23,34.21372 23,32.6270132 C23,32.279448 22.9194726,31.9462979 22.7719372,31.6379247 C22.2459432,32.737339 20.8682315,33.521823 19.2514546,33.521823 C17.5678431,33.521823 16.1434704,32.6711402 15.6701507,31.5 Z" id="Mouth" fill="#D78A92"></path>
                <path d="M7.26605258,13.9687558 C8.29553154,13.5147666 8.74608124,13.4669558 10.2035251,13.5147666 C10.7631189,13.5331238 11.8619439,13.6844535 13.5,13.9687558 L13.5,14.8087748 C11.6012389,14.431544 10.2841746,14.2429287 9.54880687,14.2429287 C8.81343918,14.2429287 7.63050355,14.6619524 6,15.5 C6.00146078,14.8507368 6.4234783,14.3403221 7.26605258,13.9687558 Z" id="Left-Eyebrow" fill="#4A4A4A"></path>
                <g id="Left-Eye" transform="translate(8.000000, 17.000000)">
                    <ellipse id="Left-eyeball" fill="#4A4A4A" cx="2.90468117" cy="2.6626244" rx="2.90468117" ry="2.6626244"></ellipse>
                    <ellipse id="Left-eye-white" fill="#FFFFFF" cx="4" cy="1.83333333" rx="1" ry="1"></ellipse>
                </g>
                <g id="Right-Eye" transform="translate(25.500000, 17.000000)">
                    <ellipse id="Right-eyeball" fill="#4A4A4A" cx="2.90468117" cy="2.6626244" rx="2.90468117" ry="2.6626244"></ellipse>
                    <ellipse id="Right-eye-white" fill="#FFFFFF" cx="4" cy="1.83333333" rx="1" ry="1"></ellipse>
                </g>
                <path d="M8.70897604,16.5416768 C8.68846647,16.9516507 8.69205513,17.2427957 8.71974202,17.4151117 C8.74742892,17.5874277 8.81746158,17.7544826 8.92984002,17.9162764 L8.48811206,17.9162764 C8.46557371,17.6974149 8.46448693,17.5246116 8.48485174,17.3978664 C8.50521654,17.2711212 8.57992465,16.9857246 8.70897604,16.5416768 Z" id="Left-middle-eyelash" fill="#4A4A4A" transform="translate(8.720352, 17.228977) rotate(-39.000000) translate(-8.720352, -17.228977) "></path>
                <path d="M31.2700508,16.8872616 C31.2444138,17.399729 31.2488996,17.7636602 31.2835083,17.9790552 C31.3181169,18.1944502 31.4056577,18.4032688 31.5461308,18.6055111 L30.9939708,18.6055111 C30.9657979,18.3319343 30.9644394,18.1159301 30.9898954,17.9574986 C31.0153514,17.7990671 31.1087365,17.4423214 31.2700508,16.8872616 Z" id="Right-outer-eyelash" fill="#4A4A4A" transform="translate(31.258951, 17.746386) scale(-1, 1) rotate(-53.000000) translate(-31.258951, -17.746386) "></path>
                <path d="M7.96960636,17.1253777 C7.94396939,17.6378451 7.94845521,18.0017763 7.98306383,18.2171713 C8.01767245,18.4325663 8.10521328,18.6413849 8.24568633,18.8436272 L7.69352638,18.8436272 C7.66535344,18.5700504 7.66399498,18.3540462 7.68945098,18.1956147 C7.71490699,18.0371832 7.80829211,17.6804375 7.96960636,17.1253777 Z" id="Left-outer-eyelash" fill="#4A4A4A" transform="translate(7.958506, 17.984502) rotate(-53.000000) translate(-7.958506, -17.984502) "></path>
                <path d="M21.3829704,20.5 C21.3829704,23.0047615 21.3829704,24.7414296 21.3829704,25.7100043 C21.3829704,26.6785791 21.3829704,27.6013436 21.3829704,28.4782977 L19.5,27.8127535 L21.3829704,20.5 Z" id="Right-nose" fill="#FBD6D0" transform="translate(20.441485, 24.489149) scale(-1, 1) translate(-20.441485, -24.489149) "></path>
                <path d="M19.5,20.5 C19.5,22.89219 19.5,24.550807 19.5,25.4758511 C19.5,26.4008952 19.5,27.4089449 19.5,28.5 L17.5,27.7698688 L19.5,20.5 Z" id="Left-nose" fill="#C68977"></path>
                <path d="M30.2379316,16.5201779 C30.2148117,16.972563 30.2188571,17.2938264 30.2500678,17.4839681 C30.2812785,17.6741099 30.3602244,17.8584464 30.4869056,18.0369775 L29.9889577,18.0369775 C29.9635508,17.7954752 29.9623257,17.6047956 29.9852824,17.4649389 C30.0082391,17.3250821 30.0924555,17.0101618 30.2379316,16.5201779 Z" id="Right-middle-eyelash" fill="#4A4A4A" transform="translate(30.227921, 17.278578) scale(-1, 1) rotate(-39.000000) translate(-30.227921, -17.278578) "></path>
                <path d="M29.2423422,16.3131286 C29.2294212,16.5714121 29.2316821,16.7548335 29.2491248,16.8633925 C29.2665676,16.9719516 29.3106881,17.0771962 29.3814866,17.1791263 L29.1031979,17.1791263 C29.0889988,17.0412436 29.0883141,16.9323775 29.1011439,16.852528 C29.1139738,16.7726785 29.1610399,16.5928787 29.2423422,16.3131286 Z" id="Right-inner-eyelash" fill="#4A4A4A" transform="translate(29.342009, 16.746127) scale(-1, 1) rotate(-32.000000) translate(-29.342009, -16.746127) "></path>
                <path d="M9.49179357,16.4666863 C9.47887254,16.7249699 9.4811334,16.9083912 9.49857614,17.0169503 C9.51601888,17.1255094 9.56013947,17.230754 9.63093789,17.3326841 L9.35264926,17.3326841 C9.3384501,17.1948014 9.33776543,17.0859353 9.35059526,17.0060858 C9.36342509,16.9262363 9.41049119,16.7464365 9.49179357,16.4666863 Z" id="Left-inner-eyelash" fill="#4A4A4A" transform="translate(9.591460, 16.899685) rotate(-32.000000) translate(-9.591460, -16.899685) "></path>
            </g>
            <path d="M92,29.5834457 C95.1194063,29.4721848 97.5325897,29.4721848 99.2395503,29.5834457 C100.946511,29.6947066 103.250863,30.1767868 106.152605,31.0296864 C108.363179,32.1318093 109.808003,32.9762699 110.487079,33.5630681 C112.955941,35.6964433 114.21487,37.4114971 114.790699,39.0255226 C115.561868,41.1870767 116.738859,43.3913257 117.238945,45.2289517 C118.678402,50.5184134 118.560175,54.0827256 118.694735,55.1130896 C118.844565,56.2603748 119.46967,62.710269 118.326303,65.5918993 C117.702231,67.1647516 117.068766,71.6499333 117.238945,73.1857043 C117.357113,74.252098 117.842376,75.8568632 118.694735,78 C117.137185,77.5979698 116.168742,77.1529289 115.789406,76.6648775 C115.066145,75.7343348 114.797965,73.7370531 114.790699,72.8649311 C114.662266,57.4499741 115.210256,46.2773475 111.956182,39.8063059 C108.208696,32.3540654 101.820243,29.6701125 92.7908221,31.7544471 C92.5467861,31.237323 92.3825689,30.8629138 92.2981705,30.6312194 C92.2137721,30.399525 92.114382,30.0502671 92,29.5834457 Z" id="Rectangle-13" fill="#4A4A4A"></path>
            <path d="M91.5,29.6072152 C92.202551,29.2590321 93.1845175,29.0164108 94.4458993,28.8793514 C94.6002715,28.8625776 96.0933622,28.5122089 97.8734145,28.5002957 C99.048932,28.4924284 100.10197,28.6421195 101.839566,28.8793514 C106.022043,29.4503796 110.674623,32.3543944 112.155517,33.6207226 C113.636411,34.8870507 115.672158,37.6030865 116.434809,38.9419818 C116.909683,39.7756615 118.247651,43.0756919 118.658839,45.1000496 C119.070028,47.1244073 120.129878,51.7291082 120.304007,53.6188855 C120.352102,54.1408411 120.77888,58.4001062 120.77888,59.3902416 C120.77888,60.380377 120.480274,64.6460896 120.480274,66.1365751 C120.480274,67.6270605 120.480869,71.4022995 120.480274,72.0428377 C120.479209,73.1907647 120.63119,74.5895399 120.77888,75.9629165 C120.870845,76.8181005 121.277885,78.1637949 122,80 C120.480877,79.0352004 119.544373,78.2406037 119.190488,77.6162098 C119.025533,77.3251632 118.869438,77.3864126 118.658839,77.111017 C118.190472,76.498542 117.814242,75.7104552 117.553545,75.0509825 C116.968808,73.5718017 117.250698,71.7857018 117.139232,70.651205 C115.989803,58.9524458 116.661062,46.9136205 113.641933,41.669182 C109.616475,34.676682 102.928777,31.6835839 93.5788383,32.6898876 L91.5,29.6072152 Z" id="Rectangle-14" fill="#4A4A4A"></path>
            <path d="M77.0400546,37.5267446 C77.8683041,36.2478921 80.6412281,33.2168151 81.2766488,32.6866481 C82.74157,31.4643822 83.7527291,30.8561785 84.7859867,30.5056835 C85.2043869,30.3637564 87.7436567,29.7742434 88.1523754,29.6946606 C89.4853502,29.4351131 90.6813039,29.4351131 91.7402367,29.6946606 L92.5,30.1360335 C88.1450518,31.5011476 85.2410658,32.3513524 83.7880421,32.6866481 C82.9115408,32.888907 81.1009621,36.0189663 80.23704,37.024894 C79.767325,37.5718175 78.9786791,38.6111269 78.0335752,40.9854296 C77.7327428,41.741185 77.0896707,42.3031878 76.444708,46.2282626 C76.2859565,47.1943829 75.8108784,48.7705148 75.6332373,50.8060596 C75.5912454,51.2872351 74.7285483,52.4801428 74.728772,54.6205257 C74.7288339,55.2130785 74.8857618,58.1051378 74.728772,60.7360476 C74.6443091,62.1515165 74.728619,62.7284936 75.0028647,64.5923043 C75.289864,66.5427904 75.847513,69.942296 76.6758116,74.7908211 C76.9345497,76.1941025 77.0232032,77.1912723 76.941772,77.7823306 C76.8927416,78.1382121 76.7870049,78.5099064 76.6758116,78.6420145 C76.444708,78.9165875 75.357025,79.5442066 75.357025,79.4975326 C75.357025,78.8403009 75.5073053,78.2602929 75.357025,77.7823306 C75.2125159,77.3227233 75.1570356,77.17688 75.0028647,77.0400838 C74.728772,76.7968808 74.7131038,76.6223142 74.2303584,75.9479137 C73.3793469,74.7590413 73.1013625,71.8692667 73.3363413,70.7626498 C73.5713201,69.6560329 73.204753,64.0325145 73.0902787,61.6227391 C72.8871517,57.3467526 73.0902787,55.1920123 73.0902787,54.8748532 C73.0902787,54.1917214 73.1495016,52.2952115 73.3363413,50.217356 C73.5600956,47.7289731 73.6390305,47.01976 73.9962248,45.1611599 C74.0146592,45.0652394 74.2290501,44.0641628 74.5499239,43.2256335 C74.8707977,42.3871042 75.1012557,41.5546623 75.357025,40.9854296 C75.8181078,39.9592573 76.5153679,38.3368831 77.0400546,37.5267446 Z" id="Rectangle-11" fill="#4A4A4A"></path>
            <path d="M17.1405292,88 C20.1517804,92.939259 22.4533029,96.5103258 24.0450967,98.7132005 C25.3900277,100.574443 29.5996769,105.28343 30.3281425,106.281784 C30.4217939,106.410133 32.1620977,108.128371 33.7862038,110.622456 C34.777788,112.145199 35.3469192,112.970554 35.9866901,113.783752 C36.3947937,114.302483 36.8210099,114.977581 37.4384796,115.301738 C38.197358,115.700131 45.7736293,114.43204 48.5199706,114.451979 C49.6715273,114.460339 52.105408,114.176165 53.8747281,114.030888 C55.6691089,113.883554 56.8016042,113.874733 58.3400928,113.83171 C61.395583,113.746264 63.5737157,114.260834 66.8468893,114.534585 C69.783673,114.780202 73.1614858,112.942215 77.4631025,113.821936 C79.4836076,114.235148 82.3292401,116.333791 86,120.117866 L71.1621966,126.520547 C65.6490834,126.930972 61.5581499,127.077895 58.8893961,126.961318 C49.89116,126.568255 38.23618,125.012948 33.3686924,124.506875 C30.4565801,124.204102 25.4751584,116.888583 25.1567855,116.442058 C24.4327397,115.426567 23.7189543,114.329436 22.5815954,112.660543 C20.7219193,109.931765 17.0280541,103.57696 11.5,93.5961277 L17.1405292,88 Z" id="Left-Arm" fill="#E8BD9F" transform="translate(48.750000, 107.500000) rotate(299.000000) translate(-48.750000, -107.500000) "></path>
            <path d="M121.16764,70.5 C124.193364,75.4091271 126.505948,78.9584086 128.105393,81.1478447 C129.456788,82.9977328 133.68667,87.6779926 134.418637,88.6702565 C134.512739,88.7978217 136.261407,90.5055781 137.893319,92.9844483 C138.889669,94.4979016 139.461536,95.3182216 140.104382,96.1264585 C140.514447,96.6420247 140.942712,97.3130045 141.563149,97.6351841 C142.325675,98.031147 149.555112,97.3289621 152.72148,96.8034737 C153.307693,96.7061861 153.856017,96.6362854 154.893316,96.5421315 C155.827439,96.4573427 157.02756,96.3873007 158.078396,96.372087 C159.897787,96.3457463 164.153978,96.7006293 164.93731,96.7983805 C166.273553,96.9651292 167.524783,97.1277417 169.280704,97.1682008 C169.866227,97.1816921 172.246893,96.6428624 172.66048,96.6294012 C173.141663,96.6137399 174.05051,96.5207977 175.524791,96.6023391 C177.667886,96.720872 180.492955,97.376907 184,98.570444 L176.795735,109.939396 C174.584324,110.890938 172.545119,111.202209 170.67812,110.873209 C170.235609,110.79523 165.215261,110.264775 164.579637,110.193944 C163.266252,110.047585 160.22058,109.854183 159.586769,109.807463 C150.404803,109.130629 142.364683,107.287151 137.473801,106.784165 C134.547692,106.483239 129.542328,99.2123485 129.222425,98.7685473 C128.494899,97.7592517 127.777683,96.6688135 126.634857,95.0101017 C124.766243,92.2979707 121.054624,85.981933 115.5,76.0619886 L121.16764,70.5 Z" id="Right-Arm" fill="#E8BD9F" transform="translate(149.750000, 90.750000) scale(-1, 1) rotate(331.000000) translate(-149.750000, -90.750000) "></path>
            <path d="M14.8335971,123.162172 C14.9723981,123.198175 15.111199,123.234179 15.25,123.270182 C15.3882327,123.234326 19.2001773,124.622363 19.33841,124.586507 C19.33841,124.586507 19.33841,124.586507 19.33841,124.586507 L19.33841,124.586507 C19.8872734,123.953998 20.8449643,123.88619 21.4774727,124.435054 C21.8093678,124.723058 22,125.140879 22,125.580311 L22,129.9375 L22,129.9375 C22,132.733442 19.7334415,135 16.9375,135 L13.5625,135 L13.5625,135 C10.7665585,135 8.5,132.733442 8.5,129.9375 L8.5,128.0625 L8.5,128.0625 C8.5,125.266558 10.7665585,123 13.5625,123 C13.9913577,123 14.4184774,123.054494 14.8335971,123.162172 Z" id="Left-Hand" fill="#E8BD9F"></path>
            <path d="M187.716674,82.5707935 C187.716674,82.5707935 187.716674,82.5707935 187.716674,82.5707935 C187.852256,82.5343906 191.591097,83.9435909 191.726678,83.9071879 C191.726678,83.9071879 191.726678,83.9071879 191.726678,83.9071879 L191.726678,83.9071879 C192.902874,84.5992519 193.586266,85.8972047 193.491242,87.2585859 L193.314548,89.7900047 L193.314548,89.7900047 C193.129001,92.4482715 190.914538,94.5076217 188.249815,94.4999782 L187.040483,94.4965094 L187.040483,94.4965094 C184.248704,94.4885014 181.992012,92.2188258 182.00002,89.427047 C182.000801,89.1549972 182.023541,88.8834543 182.068021,88.6150642 L182.453271,86.2904868 L182.453271,86.2904868 C182.862366,83.8220201 185.195091,82.15257 187.663558,82.5616657 C187.681281,82.564603 187.698987,82.5676456 187.716674,82.5707935 Z" id="Right-Hand" fill="#E8BD9F" transform="translate(187.750003, 88.499999) scale(-1, 1) rotate(7.000000) translate(-187.750003, -88.499999) "></path>
            <g id="paddle" transform="translate(171.500000, 33.500000)">
                <path d="M25.3805687,86.5122255 L28.2627106,86.3694244 C30.1165957,87.64773 31.256807,88.5198366 31.6833444,88.9857441 C31.7119581,89.0169989 32.7155259,89.8342398 33.7841901,91.6231796 C34.7079395,93.1695324 35.3535101,95.0287665 35.5108557,96.2663802 C35.9047148,99.3643086 37.046482,115.619885 38.9361571,145.033109 L16.708444,145.033109 C17.7145906,116.619876 18.4828985,100.364299 19.0133675,96.2663802 C19.0860262,95.7050854 19.519862,93.9305378 20.3383115,92.2149782 C20.982756,90.8641522 21.9721911,89.5307684 22.4836521,88.9857441 C23.0623612,88.3690587 24.0280001,87.5445524 25.3805687,86.5122255 Z" id="blade" fill="#000000" transform="translate(27.822301, 115.701267) rotate(-10.000000) translate(-27.822301, -115.701267) "></path>
                <rect id="T-grip" fill="#000000" transform="translate(6.806938, 2.989222) rotate(-10.000000) translate(-6.806938, -2.989222) " x="0.506937682" y="1.14698035" width="12.6" height="3.68448302"></rect>
                <polygon id="paddle-shaft" fill="#000000" transform="translate(14.505282, 46.050106) rotate(-10.000000) translate(-14.505282, -46.050106) " points="13.135062 4.14885158 15.8755012 4.14885158 15.8755012 87.9513609 13.135062 87.9513609"></polygon>
                <polygon id="Grip-tape" fill="#F8E71C" transform="translate(19.123511, 72.468763) rotate(-10.000000) translate(-19.123511, -72.468763) " points="17.6558329 63.8877224 20.6332393 63.9256161 20.5913566 80.9808144 17.613783 81.0498041"></polygon>
            </g>
            <path d="M191.5,91.5 C189.843146,91.5 188.5,90.5279866 188.5,89.3289474 L188.5,86.1710526 C188.5,84.9720134 189.843146,84 191.5,84" id="Rectangle-25" stroke="#4A4A4A" stroke-width="0.5" fill="#E8BD9F" transform="translate(190.000000, 87.750000) rotate(-26.000000) translate(-190.000000, -87.750000) "></path>
            <g id="Diploma-full" transform="translate(6.500000, 94.000000)">
                <path d="M5.24210921,4.49270337 C7.27758512,4.49270337 9.40029204,3.90010893 9.40029204,2.93361062 C9.40029204,1.96711231 7.27758512,0.992703373 5.24210921,0.992703373 C3.20663331,0.992703373 1.31767294,1.75300993 1.31767294,2.71950824 C1.31767294,3.68600655 3.20663331,4.49270337 5.24210921,4.49270337 Z" id="Oval-10" fill="#E3E0E0" transform="translate(5.358982, 2.742703) rotate(-8.000000) translate(-5.358982, -2.742703) "></path>
                <path d="M5.96829061,2.54286574 C7.29156766,3.57972125 8.55403185,4.098149 9.75568319,4.098149 C10.9573345,4.098149 12.3904602,3.71141953 14.0550603,2.93796058 L12.969723,67.8621645 C12.0102529,69.0335215 10.8002713,69.6395376 9.33977816,69.6802126 C7.87928503,69.7208876 6.39509399,69.2176969 4.88720504,68.1706405 L5.96829061,2.54286574 Z" id="Rectangle" fill="#FAFAF0" transform="translate(9.471133, 36.112680) rotate(-8.000000) translate(-9.471133, -36.112680) "></path>
            </g>
            <g id="Right-thumb" transform="translate(186.750000, 87.000000) rotate(17.000000) translate(-186.750000, -87.000000) ">
                <use fill="#E8BD9F" fill-rule="evenodd" xlink:href="#path-1"></use>
                <path stroke="#4A4A4A" stroke-width="0.5" d="M184.874397,86.8322059 L185.842556,88.184967 C186.008043,88.1070614 186.20713,88.0134853 186.248487,87.9939396 C186.441278,87.9028247 186.575884,87.8376665 186.701221,87.7742641 C186.770125,87.7394091 186.835282,87.7055188 186.899068,87.6713125 C187.089298,87.5692988 187.275956,87.4597966 187.499017,87.3188537 C188.27716,86.8271783 188.501598,86.6701554 188.67384,86.4750715 C188.694075,86.4521522 188.712004,86.4298377 188.727744,86.4080348 C188.810999,86.2927147 188.644476,85.9600054 188.432876,85.8717023 C187.968441,85.6778875 187.410593,85.6793166 186.513374,86.0600883 C186.036888,86.2623045 185.673338,86.4292089 185.347241,86.5911717 C185.25505,86.6369602 185.035662,86.7498441 184.874397,86.8322059 Z"></path>
            </g>
            <path d="M89.5,74 C91.0749622,74.7655829 92.1886045,75.2309057 92.840927,75.3959685 C94.572463,75.834114 95.7665789,75.8901276 96.2596553,75.8901276 C96.7311593,75.8901276 97.7637696,75.7966146 99.3677379,75.3959685 C100.048571,75.225907 101.259325,74.7605842 103,74 C101.167772,75.7290071 100.141313,76.6576319 99.9206213,76.7858745 C99.5895844,76.9782385 98.7630693,77.1864041 98.297118,77.3468609 C97.8524165,77.5 96.5131121,77.5 96.217595,77.5 C95.9594461,77.5 95.1295087,77.5 94.6315309,77.3468609 C94.135529,77.1943294 93.3391939,77.0617589 92.840927,76.7858745 C92.5087492,76.6019517 91.3951068,75.6733268 89.5,74 Z" id="Chin-shadow" fill="#DEA883"></path>
            <path d="M94.5,29.6236772 C94.5,29.6236772 107.379098,27.4759958 115.04663,41.0800927 C116.156171,43.0486936 117.144365,46.2829103 118.011212,50.7827428 C118.662929,54.1658336 118.662929,62.9049193 118.011212,77" id="Path-14" stroke="#4A4A4A" stroke-width="1.6875"></path>
            <path d="M78.1897475,41.0197035 C79.8452681,37.3385335 81.4535925,35.0522368 83.0147207,34.1608133 C84.1272973,33.5255183 85.5224632,32.1983783 88.4937196,31.3214535 C89.2923233,31.0857568 90.6022581,30.8119389 92.4235239,30.5 C92.6423969,31.7109146 92.8281981,32.6109101 92.9809273,33.1999866 C93.1336565,33.7890631 93.3066807,34.2730569 93.5,34.6519678 C91.6063546,34.4736868 90.3141796,34.4736868 89.6234748,34.6519678 C88.1174571,35.0406931 86.2989262,36.0193719 85.4925083,36.7242791 C83.8406499,38.1682041 82.7592742,39.886764 82.2483811,41.8799589 C81.4805966,44.4021017 81.0005341,46.0321464 80.8081937,46.7700928 C80.6990329,47.1889063 79.9254379,49.9693501 79.9294833,50.9797672 C79.9316214,51.5138033 79.6836021,54.141879 79.6347215,54.8756995 C79.4297582,57.952712 79.0573589,62.773904 79.7362639,69.1441007 C79.9288995,70.9516102 80.6574455,73.9035767 81.9219018,78 C79.1127234,77.1045234 77.3563811,73.9340882 76.652875,68.4886947 C76.294263,65.7129076 76.0243549,62.38545 76.0002946,57.9454823 C75.9899597,56.0383296 76.2553604,53.8587687 76.1991776,51.5400702 C76.1527702,49.6248146 76.8162935,46.1180257 78.1897475,41.0197035 Z" id="Rectangle-10" fill="#4A4A4A"></path>
            <path d="M78.0862404,36.8421404 C78.9337381,35.5523398 80.9648896,33.4068958 82.9367791,32.1089174 C85.0822575,30.6966757 86.2986678,30.5784097 87.7496906,30.2999298 C89.113643,30.0381604 90.5722758,29.7715171 92.125589,29.5 L92.5,30.7214033 C89.640326,32.1139892 87.4670934,32.9793652 85.980302,33.3175313 C85.0834313,33.5215217 82.0196164,34.7372581 81.1356172,35.7517974 C80.6549861,36.3034031 79.6698544,37.6886818 78.7027868,40.0833106 C78.3949632,40.8455359 77.3704502,42.8940877 76.7104989,46.8527646 C76.5480581,47.8271557 76.1802516,49.4150275 75.9984822,51.4679983 C75.9555144,51.953293 76.71027,53.2804756 76.7104989,55.439182 C76.7105964,56.3583391 75.4219177,60.0886181 76.224119,65.4622772 C76.517788,67.4294611 77.3440107,70.8694197 78.7027868,75.7821528 C80.1313158,77.9347278 80.821917,79.0073309 80.7745903,78.9999623 C78.7027868,78.6773872 77.5812876,78.3814127 76.7104989,77.1823625 C75.8397103,75.9833123 75.2505398,74.1302118 75.2071628,73.8812048 C75.117668,73.3674571 74.3724389,68.1734222 74.1035618,63.3120647 C73.8705477,59.0991182 74.1035618,55.1244203 74.1035618,54.8045461 C74.1035618,54.1155661 74.2260148,52.6867215 74.4171966,50.5910777 C74.6461508,48.0813921 75.2071628,45.7558375 75.2071628,45.1613692 C75.2071628,43.8439382 77.2387428,38.131941 78.0862404,36.8421404 Z" id="Rectangle-11" fill="#4A4A4A"></path>
            <path d="M93.5,30.5 C90.8384121,30.9447912 88.9392212,31.4049064 87.8024273,31.8803457 C87.1378985,32.1582704 86.5028332,32.4746257 85.8972313,32.8294116 C82.5266103,34.8040566 80.0686911,37.9691828 78.5234737,42.3247902 C76.0784668,49.2166942 75.4101949,60.5222287 76.518658,76.2413936 C76.5459334,76.6281865 76.5892669,77.2143886 76.6486586,78" id="Path-13" stroke="#4A4A4A" stroke-width="1.6875"></path>
            <path d="M92,30.8162115 C96.7862569,30.3398561 100.115421,30.4017033 101.987493,31.0017531 C103.059262,31.3452842 106.940706,32.4016886 108.073662,33.1972066 C108.546007,33.5288691 111.233442,35.7206865 112.445921,37.0447884 C114.076101,38.8250449 114.260446,39.5360805 114.990406,41.4309242 C115.481365,42.7053656 116.298895,44.7500846 116.999785,47.741426 C117.289406,48.9775068 117.690296,51.1908254 118.202453,54.3813818 C118.36487,58.4810942 118.462584,61.5341831 118.495598,63.5406484 C118.569675,68.0428787 117.686846,72.1934737 117.507835,72.6441005 C117.325343,73.103487 117.590405,74.2797293 116.999785,76.1964437 C116.824487,76.7653305 115.778937,77.3695917 115.617961,78.0770356 C115.549926,78.3760291 115.139656,76.3387652 114.990406,76.5414147 C114.67556,76.9689083 114.176578,77.62177 113.493461,78.5 C115.080962,69.7585648 115.698054,63.8678033 115.344736,60.8277155 C114.872167,56.7615281 114.469005,52.9697804 114.077621,50.9875608 C113.281352,46.9547434 111.863399,44.4646522 110.855443,42.8060676 C108.895211,39.5805188 108.957795,40.1469075 107.291177,38.3639199 C106.797187,37.8354381 105.868468,37.0076474 104.423284,36.311966 C103.089852,35.6700791 100.091403,34.6739972 97.9273424,34.6739972 C97.5231563,34.6739972 96.2612625,34.7945364 94.1416612,35.0356146 C94.4615739,34.6301254 94.3320494,34.0173228 93.7530877,33.1972066 C93.174126,32.3770905 92.5897635,31.5834254 92,30.8162115 Z" id="Rectangle-12" fill="#4A4A4A"></path>
            <path d="M84.1273646,33.6701648 C84.5796825,33.0569243 85.3294231,32.5995281 86.3765864,32.2979764 C87.4237497,31.9964247 88.4222845,31.9237504 89.3721907,32.0799536 L92,32.6050689 C90.2027575,32.6050689 88.973478,32.6050689 88.3121615,32.6050689 C87.9015741,32.6050689 86.4250356,32.9129877 86.3765864,32.9285719 C85.9582009,33.0631493 85.0508867,33.6324098 84.6947792,33.8989882 C84.6639506,33.9220662 84.0990241,34.4557368 83,35.5 L84.1273646,33.6701648 Z" id="Hair-line-3" fill="#000000"></path>
            <path d="M96.1434616,34.536095 C97.3762074,33.3799068 98.4866067,32.6612144 99.4746597,32.380018 C100.462713,32.0988216 101.215995,31.9736798 101.734506,32.0045926 C102.547556,32.0834715 103.180283,32.1321316 103.632688,32.150573 C104.085093,32.1690144 105.040864,32.2901964 106.5,32.5141191 C105.202142,32.4247183 104.350369,32.380018 103.944682,32.380018 C103.50876,32.380018 102.463033,32.3273673 101.919549,32.380018 C101.108978,32.458543 100.817606,32.559296 100.283689,32.6279861 C99.8999078,32.6773609 98.6859847,32.9653728 98.277637,33.2242564 C97.9326603,33.4429642 97.4351182,33.7584757 97.0991122,34.0070595 C97.0700238,34.0285798 96.5369864,34.5262266 95.5,35.5 L96.1434616,34.536095 Z" id="Hair-line-2" fill="#000000" transform="translate(101.000000, 33.750000) scale(-1, 1) translate(-101.000000, -33.750000) "></path>
            <path d="M98.1347844,30.3554966 C99.1725036,30.0924449 99.9636509,29.9753781 100.508226,30.0042963 C101.362145,30.0780853 102.026678,30.1236056 102.501823,30.140857 C102.976969,30.1581084 103.976361,30.417931 105.5,30.9203248 C104.145746,30.5437726 103.25558,30.3554966 102.8295,30.3554966 C102.371665,30.3554966 101.270711,30.3554966 100.696862,30.3554966 C99.8404619,30.3554966 99.8560591,30.2912388 99.295304,30.3554966 C98.892231,30.4016853 97.6858177,30.6781461 97.2569437,30.9203248 C96.8946261,31.12492 95.9927217,31.6450067 95.6398259,31.8775501 C95.6092752,31.8976817 95.2293333,32.105165 94.5,32.5 C95.8854704,31.3333827 97.0970652,30.6185483 98.1347844,30.3554966 Z" id="Hair-lines" fill="#000000" transform="translate(100.000000, 31.250000) scale(-1, 1) translate(-100.000000, -31.250000) "></path>
            <g id="Right-leg" transform="translate(98.500000, 197.000000)">
                <path d="M0,0 L20.5,0 L18.8561794,10.2821212 C18.3420992,14.1192014 17.9508665,16.4170897 17.6824815,17.1757858 C17.279904,18.3138301 16.4768157,19.4449071 16.3030838,20.5378376 C16.2082183,21.1346269 16.8421796,27.3640669 16.8421796,29.1153975 C16.8421796,35.3585256 16.4921304,41.6205703 16.3030838,43.4487213 C15.9052833,47.2956004 15.1144767,54.3126933 13.9306641,64.5 L5.5473881,64.5 C4.69885323,54.4028589 4.15392,47.385766 3.91258842,43.4487213 C3.77727872,41.2413006 3.6180575,35.6690527 3.41590425,29.1153975 C3.35898916,27.2702535 4.00218098,21.1077781 3.91258842,20.5378376 C3.52952237,18.100974 2.11061444,14.75644 1.10007308,9.58729917 C0.751226245,7.80287105 0.384535219,4.60710466 0,0 Z" fill="#E8BD9F"></path>
                <ellipse id="Right-knee-shadow" fill="#DEA883" cx="10" cy="20.75" rx="3.5" ry="1.75"></ellipse>
                <path d="M12.5245892,63.9658815 L20.7387772,63.9658815 C20.7402541,64.4795164 20.8498059,64.8836884 21.0674327,65.1783976 C21.2907723,65.4808432 22.0181311,66.0893668 22.1230447,66.4579225 C22.3103748,67.116003 21.7603973,67.5371013 21.6895599,67.8430647 C21.3661391,69.2399967 20.2202285,70.3514019 20.0149384,71.1501 C19.6467373,72.5826174 18.2215815,74.9773569 15.7394712,78.3343185 C12.109253,79.7374456 9.49818869,80.2355668 7.90627828,79.828682 C6.9935021,79.5953807 5.39392316,79.9668229 4.86026607,79.0640634 C4.59556095,78.6162757 4.59556095,77.4461364 4.86026607,75.5536453 C7.23868481,72.8211218 9.11250612,70.6648175 10.48173,69.0847325 C10.6802377,68.8556545 11.2368854,68.4887175 11.8595881,66.7165952 C11.9761043,66.3850068 12.1977714,65.4681022 12.5245892,63.9658815 Z" id="Right-foot" fill="#E8BD9F" transform="translate(13.411737, 71.965882) scale(-1, 1) rotate(4.000000) translate(-13.411737, -71.965882) "></path>
                <path d="M6.8414802,74.6976416 C6.8414802,74.6722225 6.8414802,74.6966739 6.8414802,74.7709956 C6.8414802,75.6855246 6.8414802,76.3179333 6.8414802,76.5694027 C6.8414802,77.8330812 8.07526271,78.7565708 8.78832027,78.9575011 C9.46973811,79.1495158 11.3749529,79.6149819 13.3274485,79.3412849 C13.7359213,79.284026 14.274756,79.2715895 15.0114932,78.9575011 C15.3763872,78.8019382 16.0255757,78.4399711 16.9590589,77.8715998 C19.5154388,75.5902269 21.2506396,73.4780126 22.1646612,71.5349569 C22.8252192,70.1307217 23.4962288,68.2107061 23.744561,67.2169704 C23.9369614,66.4470532 23.5949326,65.8422203 23.6411169,65.5804994 C23.6941207,65.2801334 24.1274753,65.3932706 24.2612361,65.5804994 C24.5077895,65.9256073 25.4449617,67.4863416 25.21358,68.8214203 C25.0247588,69.9109238 24.2612361,72.029101 23.237973,73.8044122 C22.2147099,75.5797234 21.3235986,77.1182421 19.0209132,80.1587657 C18.4172537,80.9558528 16.9378716,82.0659745 16.6106726,82.2905984 C15.0102551,83.3892938 13.2252974,83.5840393 12.1851102,83.8107302 C10.7882041,84.1151619 8.09087528,83.896129 7.26676055,83.5399441 C5.31521788,82.6964813 5.31732184,82.6789433 4.8274498,82.2905984 C4.33757777,81.9022536 3.4345314,81.0623282 3.8614411,78.9575011 C4.14604757,77.5542831 5.13939394,76.1343299 6.8414802,74.6976416 Z" id="Right-shoe" fill="#0C0C0C" transform="translate(14.500000, 74.675120) scale(-1, 1) translate(-14.500000, -74.675120) "></path>
            </g>
            <g id="Left-leg" transform="translate(68.500000, 197.000000)">
                <path d="M6,0 L26.5,0 C25.796475,4.99374231 25.2485348,8.42111603 24.8561794,10.2821212 C23.8521605,15.0443449 22.7172761,17.9321945 22.3030838,20.5378376 C22.2082183,21.1346269 22.8421796,27.3640669 22.8421796,29.1153975 C22.8421796,35.3585256 22.4921304,41.6205703 22.3030838,43.4487213 C21.9052833,47.2956004 21.1144767,54.3126933 19.9306641,64.5 L11.5473881,64.5 C10.6988532,54.4028589 10.15392,47.385766 9.91258842,43.4487213 C9.77727872,41.2413006 9.6180575,35.6690527 9.41590425,29.1153975 C9.35898916,27.2702535 10.002181,21.1077781 9.91258842,20.5378376 C9.67311564,19.0144384 8.7163273,17.9706358 8.44879305,17.0838994 C8.01689646,15.6523877 7.47887703,11.5249645 7.10007308,9.58729917 C6.75122625,7.80287105 6.38453522,4.60710466 6,0 Z" fill="#E8BD9F"></path>
                <ellipse id="Left-knee-shadow" fill="#DEA883" cx="16" cy="20.75" rx="3.5" ry="1.75"></ellipse>
                <path d="M11.1745831,63.8408815 L19.3887711,63.8408815 C19.390248,64.3545164 19.4997998,64.7586884 19.7174266,65.0533976 C19.9407662,65.3558432 20.668125,65.9643668 20.7730386,66.3329225 C20.9603687,66.991003 20.4103911,67.4121013 20.3395538,67.7180647 C20.016133,69.1149967 18.8702224,70.2264019 18.6649323,71.0251 C18.2967312,72.4576174 16.8715754,74.8523569 14.3894651,78.2093185 C10.7592469,79.6124456 8.14818259,80.1105668 6.55627217,79.703682 C5.643496,79.4703807 4.04391706,79.8418229 3.51025997,78.9390634 C3.24555484,78.4912757 3.24555484,77.3211364 3.51025997,75.4286453 C5.8886787,72.6961218 7.76250002,70.5398175 9.13172391,68.9597325 C9.33023158,68.7306545 9.88687925,68.3637175 10.509582,66.5915952 C10.6260982,66.2600068 10.8477653,65.3431022 11.1745831,63.8408815 Z" id="Left-foot" fill="#E8BD9F" transform="translate(12.061731, 71.840882) rotate(4.000000) translate(-12.061731, -71.840882) "></path>
                <path d="M3.2414741,74.6426489 C3.2414741,74.6172298 3.2414741,74.6416812 3.2414741,74.716003 C3.2414741,75.6305319 3.2414741,76.2629407 3.2414741,76.51441 C3.2414741,77.7780886 4.47525661,78.7015781 5.18831417,78.9025085 C5.869732,79.0945232 7.77494676,79.5599892 9.72744239,79.2862922 C10.1359152,79.2290333 10.6747499,79.2165969 11.4114871,78.9025085 C11.7763811,78.7469456 12.4255696,78.3849785 13.3590528,77.8166071 C15.9154327,75.5352342 17.6506335,73.4230199 18.564655,71.4799642 C19.2252131,70.075729 19.8962227,68.1557134 20.1445549,67.1619777 C20.439806,65.9804891 20.071984,65.543594 20.1445549,65.4779657 C20.1735485,65.4517457 20.5897734,65.425487 20.66123,65.5255068 C20.9077834,65.8706146 21.8449556,67.4313489 21.6135739,68.7664277 C21.4247527,69.8559312 20.66123,71.9741084 19.6379669,73.7494196 C18.6147038,75.5247308 17.7235925,77.0632494 15.420907,80.103773 C14.8172476,80.9008601 13.3378655,82.0109819 13.0106665,82.2356058 C11.410249,83.3343012 9.62529129,83.5290466 8.58510412,83.7557375 C7.18819798,84.0601692 4.49086917,83.8411363 3.66675445,83.4849514 C1.71521178,82.6414886 1.71731574,82.6239506 1.2274437,82.2356058 C0.737571662,81.847261 -0.165474702,81.0073355 0.261435,78.9025085 C0.546041468,77.4992904 1.53938783,76.0793373 3.2414741,74.6426489 Z" id="Left-shoe" fill="#0C0C0C"></path>
            </g>
            <g id="Dress" transform="translate(67.000000, 79.500000)">
                <path d="M12.6726749,1.10799788 L16.21193,0 C18.1861039,4.07257271 19.3263785,6.3007807 19.6327536,6.68462397 C20.3161057,7.54076434 21.913532,8.89079718 24.2911928,9.50722082 C25.2586401,9.75803767 27.0550134,10.0343063 29.6803125,10.3360266 C32.8376133,10.1385172 34.9187227,9.8622486 35.9236408,9.50722082 C38.0184402,8.76714859 39.0256511,7.54952304 39.768058,6.68462397 C40.0495889,6.35664243 40.9764359,4.12843444 42.5485991,0 L46.918736,1.10799788 C45.9323006,11.2783579 45.8628696,17.8471847 46.7104428,20.8144781 C47.0200079,21.4525767 47.3641692,21.918263 47.7429269,22.2115369 C48.8040574,23.0331757 50.9286572,23.6825933 50.938589,24.1292961 C50.9847547,26.2057042 49.4310593,38.2292463 49.4310593,41.4559201 C49.4310593,43.4313588 52.7694127,65.8026801 53.4402401,70.2475913 C54.0070252,74.0031172 54.9604656,79.9693336 55.9134273,87.6073864 C56.5932473,93.0561905 57.7887716,103.353728 59.5,118.5 L0,118.5 C1.66370409,103.349694 2.83097576,93.0521565 3.50181502,87.6073864 C4.44531619,79.9495951 5.23744218,74.0728238 5.70805153,70.2475913 C6.38026192,64.7836942 9.86723366,42.6440445 9.86723366,41.4559201 C9.86723366,40.2677957 8.78480965,26.1433858 8.8429147,24.1292961 C8.85359864,23.7589595 11.1524768,23.519499 11.9498811,22.2115369 C12.7472855,20.9035749 12.6462345,20.8696727 12.6726749,20.8144781 C14.0699503,17.8976445 14.0699503,11.3288177 12.6726749,1.10799788 Z" fill="#FBEFB5"></path>
                <polygon id="Waistline/belt" fill="#F1D85E" points="9.88042016 41.5 49.4513409 41.5 49.75 44.3 9.5 44.3"></polygon>
            </g>
            <path d="M108.5,31.5 L106.167388,24 C105.823851,22.8954305 101.271756,22 96,22 C90.728244,22 86.1761492,22.8954305 85.8326116,24 L83.5,31.5 L83.75,31.5 C84.0025001,30.6715729 89.4870119,30 96,30 C102.512988,30 108.2475,30.6715729 108.5,31.5 Z" id="Grad-cap-base" fill="#2F2E2E"></path>
            <g id="Tassel" transform="translate(115.500000, 21.000000)">
                <g id="Tassel-top">
                    <use fill="#120AB5" fill-rule="evenodd" xlink:href="#path-2"></use>
                    <path stroke="#979797" stroke-width="0.5" d="M1.24313401,2.8376318 C1.24197958,2.8898022 1.2404986,2.94329681 1.2386904,2.99811307 C1.23782018,3.02449414 1.23687417,3.05118133 1.2358523,3.07817434 L1.48567335,2.8376318 L0.955346294,2.8376318 L1.1956967,3.15641904 C1.21107783,3.10267562 1.22541038,3.04990878 1.2386904,2.99811307 C1.25268163,2.9435435 1.26550458,2.89005186 1.27715466,2.8376318 C1.33446082,2.57978005 1.36338792,2.34785634 1.36338792,2.14110381 C1.36338792,1.85363695 1.30741637,1.50437249 1.19688379,1.09042316 L0.731141443,-0.04525257 L0.344921595,0.246091523 L0.998551951,0.763021215 C1.06370988,0.979534564 1.10463919,1.12857676 1.12034607,1.20515188 C1.19674818,1.57763201 1.21603402,1.76172884 1.23443337,2.12383899 C1.23522331,2.13928749 1.23522331,2.13928749 1.23603584,2.15456174 C1.2465135,2.34891685 1.24890765,2.57671334 1.24313401,2.8376318 Z"></path>
                </g>
                <g id="Tassel-top">
                    <use fill="#120AB5" fill-rule="evenodd" xlink:href="#path-3"></use>
                    <path stroke="#979797" stroke-width="0.5" d="M1.34944633,0.971515442 C1.3530305,0.976717053 1.3556989,0.980614732 1.35758318,0.98323599 C1.38143546,1.14600537 1.40697142,1.2571823 1.50666066,1.57715284 C1.53646702,1.67282169 1.6006911,2.00483267 1.59877897,2.09997694 C1.59821621,2.12797921 1.51037343,2.41501502 1.35680555,2.86816235 L1.2195406,2.86816235 L1.31448376,2.9923704 C1.30945049,3.00706525 1.30435786,3.02190696 1.29920648,3.03689288 L1.33111119,3.01412299 L1.46078069,3.18376126 C1.63573229,2.54037648 1.71337458,2.15295728 1.69458431,1.9643175 C1.67924442,1.8103168 1.65227478,1.63980871 1.61377822,1.45246808 C1.55661767,1.23226611 1.49896637,1.07784655 1.43138675,0.969996958 C1.39542466,0.912605441 1.32686581,0.733264373 1.23839101,0.453154502 L0.920902211,0.765609295 L1.23208286,0.869395731 C1.25732063,0.880807402 1.28396568,0.895098498 1.28902435,0.899171767 C1.30451519,0.911569012 1.30472862,0.911739823 1.30925047,0.915487437 C1.31128055,0.917588853 1.32141969,0.930841026 1.34944633,0.971515442 Z"></path>
                </g>
                <g id="tassel-middle">
                    <use fill="#FFCB46" fill-rule="evenodd" xlink:href="#path-4"></use>
                    <path stroke="#979797" stroke-width="0.5" d="M1.11349248,3.26529441 C1.06680414,3.35463993 1.03114774,3.46643234 1.00789693,3.60137938 C0.980723357,3.759094 0.952317531,4.04090685 0.923421275,4.44283161 C0.997674953,4.45123683 1.06915739,4.46717441 1.13766988,4.49083372 C1.14820985,4.49447347 1.15857513,4.49810574 1.16876695,4.50173168 C1.28448387,4.09582523 1.34637719,3.82601056 1.35306307,3.70716702 C1.36517327,3.49190462 1.34273718,3.25854981 1.34520768,3.26132192 C1.34656242,3.26284206 1.32955036,3.25574286 1.28518139,3.24777557 C1.25515835,3.24278835 1.25515835,3.24278835 1.219546,3.23782041 C1.21196787,3.23676535 1.17382784,3.24478893 1.11349248,3.26529441 Z"></path>
                </g>
                <path d="M1.07527398,3.25212932 C1.06261759,3.27587296 0.970267291,3.41170535 0.931051164,3.75542898 C0.924683142,3.81124376 0.951687333,3.88531192 0.931051164,4.11058278 C0.925241133,4.17400689 0.901751605,4.3064128 0.86058258,4.50780051" id="Path-15" stroke="#FFB700" stroke-width="0.5"></path>
                <path d="M1.27601583,3.25 C1.26335945,3.27374364 1.17100915,3.40957603 1.13179302,3.75329966 C1.12616912,3.80259232 1.15974906,3.90611517 1.16110915,4.06371322 C1.16166272,4.12785688 1.12979529,4.26815907 1.06550686,4.48461979" id="Path-15" stroke="#FFB700" stroke-width="0.5"></path>
                <path d="M1.46050897,3.30000305 C1.41019293,3.30000305 1.39447061,3.47492251 1.35525449,3.81864614 C1.34963059,3.8679388 1.3442422,3.95611822 1.34560229,4.11371627 C1.34615586,4.17785993 1.31428843,4.31816213 1.25,4.53462285" id="Path-15" stroke="#FFB700" stroke-width="0.5"></path>
                <path d="M0.83450769,6.06941173 C0.808936819,6.56763069 0.77711295,6.93404469 0.739036085,7.16865371 C0.586396908,8.10913366 0.608287693,9.07064676 0.624905059,10.1023439 C0.637722158,10.8980996 0.60752423,11.7353416 0.739036085,12.6385488 C0.790019928,12.9886996 0.97105766,13.3956527 1.08426376,13.8697573 C1.55204687,15.8288221 2.36662859,18.7393962 2.96499461,21.5949697 C3.78035111,25.4860836 3.97625528,28.6302141 3.97625528,29.7060188 C3.97625528,30.7374034 4.32286599,34.7795812 4.32286599,35.0676738 C4.32286599,35.3557664 4.31155071,37.0027478 4.32286599,37.1261621 C4.44008341,38.4046368 4.82090014,40.4327314 5.46531619,43.210446" id="Path-16" stroke="#FFDA56" stroke-width="0.5"></path>
                <path d="M0.651227741,6 C0.177282567,7.91331028 0.123218682,10.1261599 0.489036085,12.6385488 C0.750692145,14.4355705 1.9718207,18.0483316 2.71499461,21.5949697 C3.53035111,25.4860836 4.00946888,28.5080672 4.00946888,29.5838719 C4.00946888,30.6596765 3.73542523,33.3469474 4.00946888,36.3359048 C4.12668629,37.6143795 4.5286354,39.9058932 5.21531619,43.210446" id="Path-16" stroke="#E4B977" stroke-width="0.5"></path>
                <path d="M0.988232837,6.01891587 C0.963607007,6.15559028 0.936632474,6.36052404 0.90730924,6.63371716 C0.871784265,6.96468948 0.825163104,7.42929359 0.767445756,8.02752951 C0.573676597,10.0359321 0.939553425,11.6983008 1.16034051,12.9597 C1.38112759,14.2210992 1.80221888,14.920823 1.88348707,16.0362158 C1.96475525,17.1516087 2.39683165,18.3518986 2.51346848,18.8994601 C2.63010531,19.4470216 3.69803923,24.0968086 3.98746908,26.4448453 C4.15299161,27.7876679 3.69010053,31.0151078 3.98746908,34.6633012 C4.12154215,36.3081438 4.66996226,39.1529515 5.63272942,43.1977243" id="Path-17" stroke="#C39033" stroke-width="0.5"></path>
                <path d="M0.794987637,6.00758786 C0.321042463,7.92089814 0.266978578,10.1337477 0.632795981,12.6461367 C0.89445204,14.4431583 2.11558059,18.0559195 2.85875451,21.6025575 C3.674111,25.4936715 4.15322877,28.515655 4.15322877,29.5914597 C4.15322877,30.6672644 3.87918512,33.3545352 4.15322877,36.3434927 C4.27044619,37.6219674 4.67239529,39.9134811 5.35907608,43.2180338" id="Path-16" stroke="#E28E38" stroke-width="0.5"></path>
                <path d="M4.11725062,6.06941173 C4.09167975,6.56763069 4.05985588,6.93404469 4.02177902,7.16865371 C3.86913984,8.10913366 3.89103062,9.07064676 3.90764799,10.1023439 C3.92046509,10.8980996 3.89026716,11.7353416 4.02177902,12.6385488 C4.07276286,12.9886996 4.25380059,13.3956527 4.3670067,13.8697573 C4.67522237,15.1605574 4.06166477,17.1070637 3.7313496,18.8566085 C3.56034096,19.7623716 2.74804652,23.4256566 2.59591571,24.235339 C2.15569121,26.5783359 1.78490724,28.0358856 1.78490724,28.8353983 C1.78490724,28.9192043 1.53366565,30.8255143 1.53366565,31.0901977 C1.53366565,31.3782904 1.68981528,36.4147058 1.39950868,37.714419 C1.2397521,38.429655 0.99328888,40.2562249 0.660119019,43.1941286" id="Path-16" stroke="#FFDA56" stroke-width="0.5" transform="translate(2.555624, 24.631770) scale(-1, 1) translate(-2.555624, -24.631770) "></path>
                <path d="M4.01283255,6.00029268 C3.59363566,7.91340784 3.56694592,10.1261599 3.93276332,12.6385488 C4.12049714,13.9278816 3.88193351,15.4775648 3.72696043,17.9103301 C3.66593809,18.8682579 3.2816503,20.4801973 3.10022501,21.6360165 C2.56418373,25.0510133 1.62583913,28.052224 1.62583913,29.1280287 C1.62583913,29.7816575 1.73123353,30.2935402 1.62583913,31.3847168 C1.55776537,32.0895027 1.51311714,33.0499452 1.4117271,34.2852635 C1.29878889,35.6612827 1.04361681,38.6593586 0.646210869,43.279491 L4.01283255,6.00029268 Z" id="Path-16" stroke="#E4B977" stroke-width="0.5" transform="translate(2.329522, 24.639892) scale(-1, 1) translate(-2.329522, -24.639892) "></path>
                <path d="M4.43654618,6.01891587 C4.41192035,6.15559028 4.38494582,6.36052404 4.35562258,6.63371716 C4.32009761,6.96468948 4.27347645,7.42929359 4.2157591,8.02752951 C4.02198994,10.0359321 4.38786677,11.6983008 4.60865385,12.9597 C4.74912827,13.7622575 4.70877712,14.7258231 4.60865385,15.6030939 C4.55141093,16.104651 4.27719891,16.9811952 4.2157591,17.1450736 C3.75719931,18.3681898 3.87178347,19.6082426 3.69885355,20.2077669 C3.52592363,20.8072913 2.74786501,25.0717144 2.4017518,27.1431736 C2.31675174,27.651892 2.01449818,28.3412449 1.86602559,29.412274 C1.67528923,30.7881792 1.86602559,32.6173376 1.86602559,34.840338 C1.86602559,35.1935991 1.64869811,37.3523347 1.00303142,41.3581915 C0.938398524,41.7591881 0.885466857,42.4087577 0.844236422,43.3069004" id="Path-17" stroke="#C39033" stroke-width="0.5" transform="translate(2.771870, 24.662908) scale(-1, 1) translate(-2.771870, -24.662908) "></path>
                <path d="M5.88821373,6.00758786 C5.41426856,7.92089814 5.36020467,10.1337477 5.72602207,12.6461367 C5.98767813,14.4431583 4.91907412,16.8626344 4.37570051,21.1343386 C4.01736094,23.9514071 2.52857129,28.9246014 2.52857129,30.0004061 C2.52857129,31.0762108 2.25452765,33.7122023 2.52857129,36.7011598 C2.64578871,37.9796345 2.03888106,40.1117404 0.707848342,43.0974775" id="Path-16" stroke="#E28E38" stroke-width="0.5" transform="translate(3.298031, 24.552533) scale(-1, 1) translate(-3.298031, -24.552533) "></path>
                <path d="M1.07086233,6.09388915 C1.07086233,6.09388915 0.950967256,7.30181604 0.711177101,9.71766983 L1.1821963,16.703679 C1.281772,17.5415964 1.38405296,18.1712023 1.48903918,18.5924967 C1.55444691,18.8549684 1.92861803,19.5379638 2.38893606,21.2150157 C2.57462967,21.8915432 2.88836579,23.2795793 3.33014442,25.3791239 L3.33014442,30.9372382 L3.13554318,36.4244143 L3.73351368,43.0502891" id="Path-18" stroke="#1E2484" stroke-width="0.5"></path>
                <path d="M0.823291598,6.12636398 L0.467960172,8.04894905 C0.240124221,9.27332623 0.136906784,10.0865504 0.158307863,10.4886217 C0.179708942,10.8906929 0.282926378,11.9608277 0.467960172,13.699026 C0.50959238,14.9950501 0.574239221,15.9659103 0.661900694,16.6116065 C0.749562168,17.2573028 0.951270049,18.2483564 1.26702434,19.5847672 L1.97841102,22.5174762 C2.15647251,23.6920491 2.29354107,24.4933744 2.38961669,24.9214523 C2.48569231,25.3495302 2.62418323,25.7759972 2.80508945,26.2008534 L3.15301559,30.4146077 C3.30509348,33.7517989 3.4967611,36.2524276 3.72801843,37.9164939 C3.95927576,39.5805601 4.35096387,41.277604 4.90308274,43.0076256" id="Path-20" stroke="#120AB5" stroke-width="0.5"></path>
                <path d="M1.09709961,6.22965918 C1.25355497,8.89857285 1.39099949,10.8403332 1.50943319,12.0549402 C1.68708372,13.8768508 1.59301861,17.3369845 1.50943319,19.948146 C1.47963913,20.8788953 1.64931423,22.6198931 2.01845847,25.1711394 L2.51609533,27.9880012 C2.76913682,31.6520471 2.9526585,34.3655106 3.06666037,36.1283918 C3.11324009,36.8486827 3.01155507,37.9058598 3.06666037,38.7995377 C3.11983541,39.6619114 3.25937159,41.0537087 3.48526891,42.9749297" id="Path-22" stroke="#FFDA56" stroke-width="0.5"></path>
                <path d="M1.17502951,6.24602852 C1.4486008,7.6361744 1.58538644,8.65313239 1.58538644,9.29690247 C1.58538644,9.94067255 1.49947272,10.8323543 1.32764528,11.9719477 C1.39961227,12.9055307 1.48552599,13.5995195 1.58538644,14.0539141 C1.63780579,14.2924376 1.67768115,15.4368831 1.89186912,16.4311463 C2.02110022,17.0310386 2.31234037,18.0643654 2.76558959,19.5311266 C3.18502512,21.173001 3.44052397,22.3363491 3.53208612,23.0211707 C3.55708345,23.2081335 3.77110605,23.9716668 3.89957512,25.0439711 C4.04723351,26.2764446 4.0624336,29.3514108 4.57488155,33.9759738 C4.67149519,34.8478591 4.44220849,36.2531718 4.67478343,37.8228103 C4.76935021,38.4610376 4.91659207,39.5608067 5.2333644,40.8701483 C5.34265193,41.3218756 5.55581374,42.0473378 5.87284982,43.0465348" id="Path-21" stroke="#132054" stroke-width="0.5"></path>
                <g id="Tassel-metal">
                    <use fill="#8C7A3A" fill-rule="evenodd" xlink:href="#path-5"></use>
                    <path stroke="#979797" stroke-width="0.5" d="M1.08600007,4.87164976 C1.11090418,4.88656858 1.13458506,4.90698943 1.15803411,4.93366988 L1.3458163,4.76863096 L1.09674149,4.74714286 L1.08600007,4.87164976 Z M1.0019665,5.84570745 L0.974131166,6.16835495 L1.22320598,6.18984304 L1.31953674,5.95914761 C1.19543976,5.90732882 1.09038122,5.86953451 1.0019665,5.84570745 Z M0.806254782,5.81766043 C0.700131887,5.81901932 0.58166248,5.84536231 0.447118028,5.89315869 L0.530805713,6.12873537 L0.780023577,6.14849533 L0.806254782,5.81766043 Z M0.883857408,4.83891559 L0.898533479,4.6538171 L0.649315614,4.63405714 L0.744348529,4.86529024 C0.779181397,4.85097452 0.825693388,4.84174044 0.883857408,4.83891559 Z M0.883857408,4.83891559 C0.912378543,4.83753041 0.943701408,4.83768632 0.97782281,4.83953987 C1.01759956,4.84170062 1.05288145,4.85181005 1.08600007,4.87164976 L1.0019665,5.84570745 C0.975659878,5.83861802 0.9508267,5.83276509 0.927403893,5.82814715 C0.888821981,5.8205405 0.848517443,5.81711926 0.806254782,5.81766043 L0.883857408,4.83891559 Z"></path>
                </g>
            </g>
        </g>
    </g>
</svg>