<?xml version="1.0" encoding="UTF-8"?>
<svg width="350px" height="275px" viewBox="0 0 350 275" version="1.1" xmlns="http://www.w3.org/2000/svg" xmlns:xlink="http://www.w3.org/1999/xlink">
    <!-- Generator: Sketch 52.4 (67378) - http://www.bohemiancoding.com/sketch -->
    <title>aboutme</title>
    <desc>Created with Sketch.</desc>
    <defs>
        <filter x="-216.7%" y="-26.7%" width="533.3%" height="153.3%" filterUnits="objectBoundingBox" id="filter-1">
            <feOffset dx="0" dy="2" in="SourceAlpha" result="shadowOffsetOuter1"></feOffset>
            <feGaussianBlur stdDeviation="2" in="shadowOffsetOuter1" result="shadowBlurOuter1"></feGaussianBlur>
            <feColorMatrix values="0 0 0 0 0   0 0 0 0 0   0 0 0 0 0  0 0 0 0.5 0" type="matrix" in="shadowBlurOuter1" result="shadowMatrixOuter1"></feColorMatrix>
            <feMerge>
                <feMergeNode in="shadowMatrixOuter1"></feMergeNode>
                <feMergeNode in="SourceGraphic"></feMergeNode>
            </feMerge>
        </filter>
    </defs>
    <g id="Page-1" stroke="none" stroke-width="1" fill="none" fill-rule="evenodd">
        <g id="Artboard" transform="translate(-15.000000, -49.000000)">
            <g id="aboutme" transform="translate(15.000000, 38.000000)">
                <path d="M137.5,84.8265144 C139.151852,84.4913908 140.32119,84.2387971 141.008017,84.0687333 C141.627579,83.9153246 149.347567,81.7427047 161.101278,84.0687333 C161.61284,84.16997 162.745747,84.3438221 164.5,84.5902896 L164.5,98 L137.5,98 L137.5,84.8265144 Z" id="Collarbone-area" fill="#E8BD9F"></path>
                <rect id="Neck" fill="#E8BD9F" x="144.5" y="74" width="13.5" height="24"></rect>
                <path d="M176.480685,86.1595106 L179.168092,85.5 C179.75475,89.1197252 180.063081,91.8639369 180.093086,93.732635 C180.113829,95.0245037 181.785252,98.4014691 180.538242,104.185189 C180.167042,105.90684 178.412431,109.178443 175.274409,114 L174.726376,102.273874 C169.727521,103.641691 166.993526,104.278796 166.52439,104.185189 C166.105614,104.10163 171.218186,101.865563 171.218186,101.762843 C171.218186,101.487513 172.722521,100.809707 175.731193,99.7294242 L176.480685,86.1595106 Z" id="Right-armpit" fill="#E8BD9F" transform="translate(173.750000, 99.750000) scale(-1, 1) translate(-173.750000, -99.750000) "></path>
                <g id="Right-hair-back" transform="translate(158.000000, 64.500000)" fill="#4A4A4A">
                    <path d="M3.5,2.84587445 L11.728561,0 C12.3398325,2.70987238 12.5878353,4.89796655 12.4725694,6.5642825 C12.3877111,7.79101842 12.816424,8.37750662 11.728561,12.3252476 C11.3653477,13.6433104 9.44265435,16.8298611 9.13113156,18.5462744 C9.10831367,18.6719954 8.06539662,17.3300357 8,16.7401876 C7.86386457,15.5123073 8.29976743,14.37298 8,15.0660587 C7.90332145,15.2895848 7.77526205,16.6061006 7.42123211,17.258377 C7.26083775,17.5538928 6.92838851,18.1344338 6.42388438,19 C6.5939409,17.457351 6.5939409,16.4629381 6.42388438,16.0167612 C6.14920778,15.2960928 4.98336767,14.4629942 4.86733661,13.861358 C4.64355063,12.7009984 4.18777176,9.02917056 3.5,2.84587445 Z" id="Rectangle-20"></path>
                    <path d="M2,9.5 L5.20852195,9.5 L6,13.5527648 C5.08546431,14.2218026 4.5020918,14.7417908 4.24988246,15.1127292 C3.65384679,15.9893524 3.57528913,17.8256836 3.56796529,17.8662747 C3.55599287,17.9326296 3.63269148,18.310538 3.79806113,19 C3.45299098,18.4917632 3.17415708,18.1138547 2.96155944,17.8662747 C2.46154759,17.283987 2.42121931,16.7719908 2.34322138,16.4637566 C2.21547811,15.9589373 2.10107099,13.6376852 2,9.5 Z" id="Rectangle-22"></path>
                    <path d="M3.90572295,13 L7.5,13 L7.5,15.4286022 C7.13569553,16.7146454 6.81856191,17.5965426 6.54859914,18.0742938 C6.27863636,18.552045 5.82941863,19.0263545 5.20094593,19.4972221 C4.95954543,18.367749 4.95954543,17.3739167 5.20094593,16.5157249 C5.21350945,16.471061 5.15976949,16.8956643 5.07642912,17.4376596 C4.93777117,18.3394069 4.71717688,19.5661045 4.58367886,19.4972221 C4.43556005,19.4207956 4.33761885,19.0460445 4.22836127,18.3477725 C4.18435746,18.0665414 3.55308166,17.7120736 3.50455877,17.3916958 C3.44614553,17.0060158 3.96955003,16.666166 3.90572295,16.5157249 C3.72186756,16.082376 3.72186756,14.9104677 3.90572295,13 Z" id="Rectangle-23"></path>
                    <path d="M0.544360936,9.36885373 L4,9.36885373 C3.3079774,11.936877 2.96196611,14.0883194 2.96196611,15.8231811 C2.96196611,17.075233 2.27640364,17.9668176 2.00481881,18.7099883 C1.7549679,19.3936858 1.54110688,18.8685296 1.36323574,17.1345197 L0.00963762771,18.9933104 C-0.0211797492,14.8729042 0.0219093435,11.7598025 0.138904906,9.65400556 C0.255900468,7.54820859 0.391052478,7.45315798 0.544360936,9.36885373 Z" id="Rectangle-21"></path>
                </g>
                <path d="M132.122496,86.2529772 L135.148088,85.5 C136.130621,88.9732865 136.637759,91.6397813 136.669501,93.4994844 C136.691444,94.7851345 137.608345,98.426106 136.289126,104.181985 C135.896432,105.895349 134.149888,109.001354 131.049496,113.5 L130.5,102.165939 L132.122496,86.2529772 Z" id="Left-armpit" fill="#E8BD9F"></path>
                <g id="Left-hair-back" transform="translate(133.500000, 67.000000)" fill="#4A4A4A">
                    <path d="M4,7 L10.8194657,7 L11,16.1808251 C9.78289623,15.8498669 9.01087101,15.5701154 8.68392433,15.3415707 C8.64566899,15.3148292 8.40203518,15.3371786 8.31758055,15.5898744 C8.26436732,15.7490931 8.37697038,16.2076607 8.31758055,16.1808251 C8.05123507,16.0604754 8.00963624,16.0019344 7.86228921,15.6745884 C7.78215703,15.4965668 7.6809454,15.1429866 7.62801358,15.0566152 C7.35475424,14.6107252 7.48524698,13.5296763 7.40973287,13.5350343 C7.28540041,13.5438562 7.55054421,15.0994096 7.40973287,15.3415707 C7.25603392,15.6058954 6.89316778,15.9920384 6.32113445,16.5 L4,7 Z" id="Rectangle-19"></path>
                    <path d="M0.741517014,0 L3.87998392,3.84876999 C3.60820289,4.88205468 3.51925408,5.63825619 3.6131375,6.11737452 C3.9484748,7.82871246 4.9092487,9.26088365 4.97326772,10.2646994 C5.06417156,11.6900682 4.9232347,13.0557568 4.55045714,14.361765 L3.6131375,17 C3.26526736,15.3818325 2.9350505,14.2318086 2.62248694,13.5499283 C1.65355692,11.4361364 0.379687972,9.82179646 0.156411631,8.5 C-0.174903545,6.53861338 0.0201315823,3.70528004 0.741517014,0 Z" id="Rectangle-16"></path>
                    <path d="M3,4 L6.43013036,7.3984545 C6.88925507,7.26420093 7.07095383,7.52974475 6.97522665,8.19508597 C6.96259087,8.28290952 5.64195176,9.91930505 5.61961631,10.0148999 C5.55660012,10.2846065 5.30789304,10.7877066 5.30789304,11.583096 C5.30789304,12.6081774 4.72152446,13.4112655 4.58143354,14.2988591 C4.4880396,14.8905883 4.60693512,15.7909685 4.93812012,17 C4.34031188,16.0544411 4.00045858,15.3069938 3.91856022,14.7576581 C3.83666187,14.2083224 3.53047513,10.6224363 3,4 Z" id="Rectangle-17"></path>
                    <path d="M4.77011589,6.5 L9.5,8.88683756 L7.92827304,10.0954659 C7.16652032,12.5119939 6.71291417,13.8389754 6.56745459,14.0764105 C5.62793471,15.6099982 4.99811687,17.0497221 4.99236532,16.9986823 C4.98900963,16.9689036 5.09680571,15.4834146 4.99236532,14.0764105 C4.97352857,13.8226449 4.09916602,12.1397466 4.03639953,11.7501216 C3.90051506,10.9066142 4.14508718,9.15657372 4.77011589,6.5 Z" id="Rectangle-18"></path>
                </g>
                <polygon id="Grad-cap-mortar-board" fill="#000000" transform="translate(151.250000, 34.250000) rotate(-42.000000) translate(-151.250000, -34.250000) " points="127.5 10.5 165.990023 17.2993475 175 58 136.62291 51.461644"></polygon>
                <g id="Alexandra-head" transform="translate(132.000000, 36.500000)">
                    <path d="M19.2208139,44.5 C25.9216445,44.5 32.9806025,37.1170902 34.1668034,35.667921 C37.0059069,32.1994179 39,27.3950848 39,22.25 C39,9.96166432 30.7480662,0 19.2208139,0 C7.69356164,0 0,9.96166432 0,22.25 C0,27.3091511 1.81635146,32.1513581 4.40506549,35.667921 C5.3318691,36.9269103 12.439372,44.5 19.2208139,44.5 Z" id="Face" fill="#E8BD9F"></path>
                    <path d="M26.2660526,13.9687558 C27.2955315,13.5147666 27.7460812,13.4669558 29.2035251,13.5147666 C29.7631189,13.5331238 30.8619439,13.6844535 32.5,13.9687558 L32.5,14.8087748 C30.6012389,14.431544 29.2841746,14.2429287 28.5488069,14.2429287 C27.8134392,14.2429287 26.6305036,14.6619524 25,15.5 C25.0014608,14.8507368 25.4234783,14.3403221 26.2660526,13.9687558 Z" id="Right-Eyebrow" fill="#4A4A4A" transform="translate(28.750000, 14.500000) scale(-1, 1) translate(-28.750000, -14.500000) "></path>
                    <path d="M15.6701507,31.5 C15.653687,31.5301408 15.6379618,31.5605631 15.6229938,31.591258 C15.4703623,31.904261 15.5029092,32.2732048 15.5029092,32.6270132 C15.5029092,34.21372 17.1811901,35.5 19.2514546,35.5 C21.3217191,35.5 23,34.21372 23,32.6270132 C23,32.279448 22.9194726,31.9462979 22.7719372,31.6379247 C22.2459432,32.737339 20.8682315,33.521823 19.2514546,33.521823 C17.5678431,33.521823 16.1434704,32.6711402 15.6701507,31.5 Z" id="Mouth" fill="#D78A92"></path>
                    <path d="M7.26605258,13.9687558 C8.29553154,13.5147666 8.74608124,13.4669558 10.2035251,13.5147666 C10.7631189,13.5331238 11.8619439,13.6844535 13.5,13.9687558 L13.5,14.8087748 C11.6012389,14.431544 10.2841746,14.2429287 9.54880687,14.2429287 C8.81343918,14.2429287 7.63050355,14.6619524 6,15.5 C6.00146078,14.8507368 6.4234783,14.3403221 7.26605258,13.9687558 Z" id="Left-Eyebrow" fill="#4A4A4A"></path>
                    <g id="Left-Eye" transform="translate(8.000000, 17.000000)">
                        <ellipse id="Left-eyeball" fill="#4A4A4A" cx="2.90468117" cy="2.6626244" rx="2.90468117" ry="2.6626244"></ellipse>
                        <circle id="Left-eye-white" fill="#FFFFFF" cx="4" cy="1.83333333" r="1"></circle>
                    </g>
                    <g id="Right-Eye" transform="translate(25.500000, 17.000000)">
                        <ellipse id="Right-eyeball" fill="#4A4A4A" cx="2.90468117" cy="2.6626244" rx="2.90468117" ry="2.6626244"></ellipse>
                        <circle id="Right-eye-white" fill="#FFFFFF" cx="4" cy="1.83333333" r="1"></circle>
                    </g>
                    <path d="M8.71348993,16.5544244 C8.69298036,16.9643983 8.69656902,17.2555433 8.72425591,17.4278593 C8.75194281,17.6001753 8.82197547,17.7672302 8.93435391,17.929024 L8.49262595,17.929024 C8.4700876,17.7101625 8.46900082,17.5373592 8.48936563,17.410614 C8.50973043,17.2838688 8.58443854,16.9984722 8.71348993,16.5544244 Z" id="Left-middle-eyelash" fill="#4A4A4A" transform="translate(8.704610, 17.241724) rotate(-39.000000) translate(-8.704610, -17.241724) "></path>
                    <path d="M31.270051,16.8872617 C31.244414,17.3997291 31.2488998,17.7636603 31.2835085,17.9790553 C31.3181171,18.1944503 31.4056579,18.4032689 31.546131,18.6055112 L30.993971,18.6055112 C30.9657981,18.3319344 30.9644396,18.1159302 30.9898956,17.9574987 C31.0153516,17.7990672 31.1087367,17.4423215 31.270051,16.8872617 Z" id="Right-outer-eyelash" fill="#4A4A4A" transform="translate(31.258951, 17.746386) scale(-1, 1) rotate(-53.000000) translate(-31.258951, -17.746386) "></path>
                    <path d="M7.96960661,17.1253773 C7.94396964,17.6378447 7.94845546,18.0017759 7.98306408,18.2171709 C8.0176727,18.4325659 8.10521353,18.6413845 8.24568658,18.8436268 L7.69352663,18.8436268 C7.66535369,18.57005 7.66399523,18.3540458 7.68945123,18.1956143 C7.71490724,18.0371828 7.80829236,17.6804371 7.96960661,17.1253773 Z" id="Left-outer-eyelash" fill="#4A4A4A" transform="translate(7.958507, 17.984502) rotate(-53.000000) translate(-7.958507, -17.984502) "></path>
                    <path d="M21.38297,20.5 C21.38297,23.0047615 21.38297,24.7414296 21.38297,25.7100043 C21.38297,26.6785791 21.38297,27.6013436 21.38297,28.4782977 L19.4999996,27.8127535 L21.38297,20.5 Z" id="Right-nose" fill="#FBD6D0" transform="translate(20.441485, 24.489149) scale(-1, 1) translate(-20.441485, -24.489149) "></path>
                    <path d="M19.5,20.5 C19.5,22.89219 19.5,24.550807 19.5,25.4758511 C19.5,26.4008952 19.5,27.4089449 19.5,28.5 L17.5,27.7698688 L19.5,20.5 Z" id="Left-nose" fill="#C68977"></path>
                    <path d="M30.2379311,16.5201777 C30.2148112,16.9725628 30.2188566,17.2938262 30.2500673,17.4839679 C30.281278,17.6741097 30.3602239,17.8584462 30.4869051,18.0369773 L29.9889572,18.0369773 C29.9635503,17.795475 29.9623252,17.6047954 29.9852819,17.4649387 C30.0082386,17.3250819 30.092455,17.0101616 30.2379311,16.5201777 Z" id="Right-middle-eyelash" fill="#4A4A4A" transform="translate(30.227921, 17.278578) scale(-1, 1) rotate(-39.000000) translate(-30.227921, -17.278578) "></path>
                    <path d="M29.4368697,16.3689085 C29.4239487,16.627192 29.4262096,16.8106134 29.4436523,16.9191724 C29.4610951,17.0277315 29.5052156,17.1329761 29.5760141,17.2349062 L29.2977254,17.2349062 C29.2835263,17.0970235 29.2828416,16.9881574 29.2956714,16.9083079 C29.3085013,16.8284584 29.3555674,16.6486586 29.4368697,16.3689085 Z" id="Right-inner-eyelash" fill="#4A4A4A" transform="translate(29.431275, 16.801907) scale(-1, 1) rotate(-32.000000) translate(-29.431275, -16.801907) "></path>
                    <path d="M9.50778827,16.522466 C9.49486724,16.7807496 9.4971281,16.9641709 9.51457084,17.07273 C9.53201358,17.1812891 9.57613417,17.2865337 9.64693259,17.3884638 L9.36864396,17.3884638 C9.3544448,17.2505811 9.35376013,17.141715 9.36658996,17.0618655 C9.37941979,16.982016 9.42648589,16.8022162 9.50778827,16.522466 Z" id="Left-inner-eyelash" fill="#4A4A4A" transform="translate(9.502194, 16.955465) rotate(-32.000000) translate(-9.502194, -16.955465) "></path>
                </g>
                <path d="M147,34.5834457 C150.119406,34.4721848 152.53259,34.4721848 154.23955,34.5834457 C155.946511,34.6947066 158.250863,35.1767868 161.152605,36.0296864 C163.363179,37.1318093 164.808003,37.9762699 165.487079,38.5630681 C167.955941,40.6964433 169.21487,42.4114971 169.790699,44.0255226 C170.561868,46.1870767 171.738859,48.3913257 172.238945,50.2289517 C173.678402,55.5184134 173.560175,59.0827256 173.694735,60.1130896 C173.844565,61.2603748 174.46967,67.710269 173.326303,70.5918993 C172.702231,72.1647516 172.068766,76.6499333 172.238945,78.1857043 C172.357113,79.252098 172.842376,80.8568632 173.694735,83 C172.137185,82.5979698 171.168742,82.1529289 170.789406,81.6648775 C170.066145,80.7343348 169.797965,78.7370531 169.790699,77.8649311 C169.662266,62.4499741 170.210256,51.2773475 166.956182,44.8063059 C163.208696,37.3540654 156.820243,34.6701125 147.790822,36.7544471 C147.546786,36.237323 147.382569,35.8629138 147.29817,35.6312194 C147.213772,35.399525 147.114382,35.0502671 147,34.5834457 Z" id="Rectangle-13" fill="#4A4A4A"></path>
                <path d="M146.5,34.6072152 C147.202551,34.2590321 148.184517,34.0164108 149.445899,33.8793514 C149.600272,33.8625776 151.093362,33.5122089 152.873414,33.5002957 C154.048932,33.4924284 155.10197,33.6421195 156.839566,33.8793514 C161.022043,34.4503796 165.674623,37.3543944 167.155517,38.6207226 C168.636411,39.8870507 170.672158,42.6030865 171.434809,43.9419818 C171.909683,44.7756615 173.247651,48.0756919 173.658839,50.1000496 C174.070028,52.1244073 175.129878,56.7291082 175.304007,58.6188855 C175.352102,59.1408411 175.77888,63.4001062 175.77888,64.3902416 C175.77888,65.380377 175.480274,69.6460896 175.480274,71.1365751 C175.480274,72.6270605 175.480869,76.4022995 175.480274,77.0428377 C175.479209,78.1907647 175.63119,79.5895399 175.77888,80.9629165 C175.870845,81.8181005 176.277885,83.1637949 177,85 C175.480877,84.0352004 174.544373,83.2406037 174.190488,82.6162098 C174.025533,82.3251632 173.869438,82.3864126 173.658839,82.111017 C173.190472,81.498542 172.814242,80.7104552 172.553545,80.0509825 C171.968808,78.5718017 172.250698,76.7857018 172.139232,75.651205 C170.989803,63.9524458 171.661062,51.9136205 168.641933,46.669182 C164.616475,39.676682 157.928777,36.6835839 148.578838,37.6898876 L146.5,34.6072152 Z" id="Rectangle-14" fill="#4A4A4A"></path>
                <path d="M132.040055,42.5267446 C132.868304,41.2478921 135.641228,38.2168151 136.276649,37.6866481 C137.74157,36.4643822 138.752729,35.8561785 139.785987,35.5056835 C140.204387,35.3637564 142.743657,34.7742434 143.152375,34.6946606 C144.48535,34.4351131 145.681304,34.4351131 146.740237,34.6946606 L147.5,35.1360335 C143.145052,36.5011476 140.241066,37.3513524 138.788042,37.6866481 C137.911541,37.888907 136.100962,41.0189663 135.23704,42.024894 C134.767325,42.5718175 133.978679,43.6111269 133.033575,45.9854296 C132.732743,46.741185 132.089671,47.3031878 131.444708,51.2282626 C131.285956,52.1943829 130.810878,53.7705148 130.633237,55.8060596 C130.591245,56.2872351 129.728548,57.4801428 129.728772,59.6205257 C129.728834,60.2130785 129.885762,63.1051378 129.728772,65.7360476 C129.644309,67.1515165 129.728619,67.7284936 130.002865,69.5923043 C130.289864,71.5427904 130.847513,74.942296 131.675812,79.7908211 C131.93455,81.1941025 132.023203,82.1912723 131.941772,82.7823306 C131.892742,83.1382121 131.787005,83.5099064 131.675812,83.6420145 C131.444708,83.9165875 130.357025,84.5442066 130.357025,84.4975326 C130.357025,83.8403009 130.507305,83.2602929 130.357025,82.7823306 C130.212516,82.3227233 130.157036,82.17688 130.002865,82.0400838 C129.728772,81.7968808 129.713104,81.6223142 129.230358,80.9479137 C128.379347,79.7590413 128.101362,76.8692667 128.336341,75.7626498 C128.57132,74.6560329 128.204753,69.0325145 128.090279,66.6227391 C127.887152,62.3467526 128.090279,60.1920123 128.090279,59.8748532 C128.090279,59.1917214 128.149502,57.2952115 128.336341,55.217356 C128.560096,52.7289731 128.63903,52.01976 128.996225,50.1611599 C129.014659,50.0652394 129.22905,49.0641628 129.549924,48.2256335 C129.870798,47.3871042 130.101256,46.5546623 130.357025,45.9854296 C130.818108,44.9592573 131.515368,43.3368831 132.040055,42.5267446 Z" id="Rectangle-11" fill="#4A4A4A"></path>
                <path d="M72.1405291,93.0000001 C75.1517803,97.9392591 77.4533028,101.510326 79.0450966,103.713201 C80.3900276,105.574443 84.5996768,110.28343 85.3281424,111.281784 C85.4217938,111.410133 87.1620976,113.128371 88.7862037,115.622456 C89.7777879,117.145199 90.3469191,117.970554 90.98669,118.783752 C91.3947936,119.302483 91.8210098,119.977581 92.4384795,120.301738 C93.1973579,120.700131 100.773629,119.43204 103.51997,119.451979 C104.671527,119.460339 107.105408,119.176165 108.874728,119.030888 C110.669109,118.883554 111.801604,118.874733 113.340093,118.83171 C116.395583,118.746264 118.573716,119.260834 121.846889,119.534585 C124.783673,119.780202 128.161486,117.942215 132.463102,118.821936 C134.483607,119.235148 137.32924,121.333791 141,125.117866 L126.162196,131.520547 C120.649083,131.930972 116.55815,132.077895 113.889396,131.961318 C104.89116,131.568255 93.2361799,130.012948 88.3686923,129.506875 C85.45658,129.204102 80.4751583,121.888583 80.1567854,121.442058 C79.4327396,120.426567 78.7189542,119.329436 77.5815953,117.660543 C75.7219192,114.931765 72.028054,108.57696 66.4999999,98.5961278 L72.1405291,93.0000001 Z" id="Left-Arm" fill="#E8BD9F" transform="translate(103.750000, 112.500000) rotate(-61.000000) translate(-103.750000, -112.500000) "></path>
                <path d="M175.16764,75.5 C178.193364,80.4091271 180.505948,83.9584086 182.105393,86.1478447 C183.456788,87.9977328 187.68667,92.6779926 188.418637,93.6702565 C188.512739,93.7978217 190.261407,95.5055781 191.893319,97.9844483 C192.889669,99.4979016 193.461536,100.318222 194.104382,101.126458 C194.514447,101.642025 194.942712,102.313004 195.563149,102.635184 C196.325675,103.031147 203.555112,102.328962 206.72148,101.803474 C207.307693,101.706186 207.856017,101.636285 208.893316,101.542131 C209.827439,101.457343 211.02756,101.387301 212.078396,101.372087 C213.897787,101.345746 218.153978,101.700629 218.93731,101.79838 C220.273553,101.965129 221.524783,102.127742 223.280704,102.168201 C223.866227,102.181692 226.246893,101.642862 226.66048,101.629401 C227.141663,101.61374 228.05051,101.520798 229.524791,101.602339 C231.667886,101.720872 234.492955,102.376907 238,103.570444 L230.795735,114.939396 C228.584324,115.890938 226.545119,116.202209 224.67812,115.873209 C224.235609,115.79523 219.215261,115.264775 218.579637,115.193944 C217.266252,115.047585 214.22058,114.854183 213.586769,114.807463 C204.404803,114.130629 196.364683,112.287151 191.473801,111.784165 C188.547692,111.483239 183.542328,104.212348 183.222425,103.768547 C182.494899,102.759252 181.777683,101.668813 180.634857,100.010102 C178.766243,97.2979707 175.054624,90.981933 169.5,81.0619886 L175.16764,75.5 Z" id="Right-Arm" fill="#E8BD9F" transform="translate(203.750000, 95.750000) scale(-1, 1) rotate(-29.000000) translate(-203.750000, -95.750000) "></path>
                <path d="M69.8335971,128.162172 C69.9723981,128.198175 70.111199,128.234179 70.25,128.270182 C70.3882327,128.234326 74.2001773,129.622363 74.33841,129.586507 C74.33841,129.586507 74.33841,129.586507 74.33841,129.586507 C74.8872734,128.953998 75.8449643,128.88619 76.4774727,129.435054 C76.8093678,129.723058 77,130.140879 77,130.580311 L77,134.9375 C77,137.733442 74.7334415,140 71.9375,140 L68.5625,140 C65.7665585,140 63.5,137.733442 63.5,134.9375 L63.5,133.0625 C63.5,130.266558 65.7665585,128 68.5625,128 C68.9913577,128 69.4184774,128.054494 69.8335971,128.162172 Z" id="Left-Hand" fill="#E8BD9F"></path>
                <path d="M242.716673,87.5707935 C242.716673,87.5707935 242.716673,87.5707935 242.716673,87.5707935 C242.852255,87.5343906 246.591096,88.9435909 246.726677,88.9071879 C246.726677,88.9071879 246.726677,88.9071879 246.726677,88.9071879 C247.902873,89.5992519 248.586265,90.8972047 248.491241,92.2585859 L248.314547,94.7900047 C248.129,97.4482715 245.914537,99.5076217 243.249814,99.4999782 L242.040482,99.4965094 C239.248703,99.4885014 236.992011,97.2188258 237.000019,94.427047 C237.0008,94.1549972 237.02354,93.8834543 237.06802,93.6150642 L237.45327,91.2904868 C237.862365,88.8220201 240.19509,87.15257 242.663557,87.5616657 C242.68128,87.564603 242.698986,87.5676456 242.716673,87.5707935 Z" id="Right-Hand" fill="#E8BD9F" transform="translate(242.750003, 93.499999) scale(-1, 1) rotate(7.000000) translate(-242.750003, -93.499999) "></path>
                <g id="paddle" transform="translate(226.500000, 38.500000)">
                    <path d="M25.3805687,86.5122256 L28.2627106,86.3694245 C30.1165957,87.6477301 31.256807,88.5198367 31.6833444,88.9857442 C31.7119581,89.016999 32.7155259,89.8342399 33.7841901,91.6231797 C34.7079395,93.1695325 35.3535101,95.0287666 35.5108557,96.2663803 C35.9047148,99.3643087 37.046482,115.619885 38.9361571,145.033109 L16.708444,145.033109 C17.7145906,116.619876 18.4828985,100.364299 19.0133675,96.2663803 C19.0860262,95.7050855 19.519862,93.9305379 20.3383115,92.2149783 C20.982756,90.8641523 21.9721911,89.5307685 22.4836521,88.9857442 C23.0623612,88.3690588 24.0280001,87.5445525 25.3805687,86.5122256 Z" id="blade" fill="#000000" transform="translate(27.822301, 115.701267) rotate(-10.000000) translate(-27.822301, -115.701267) "></path>
                    <rect id="T-grip" fill="#000000" transform="translate(6.806938, 2.989222) rotate(-10.000000) translate(-6.806938, -2.989222) " x="0.506937663" y="1.14698041" width="12.6" height="3.68448302"></rect>
                    <polygon id="paddle-shaft" fill="#000000" transform="translate(14.505282, 46.050106) rotate(-10.000000) translate(-14.505282, -46.050106) " points="13.135062 4.14885165 15.8755012 4.14885165 15.8755012 87.951361 13.135062 87.951361"></polygon>
                    <polygon id="Grip-tape" fill="#F8E71C" transform="translate(19.123511, 72.468763) rotate(-10.000000) translate(-19.123511, -72.468763) " points="17.6558329 63.8877224 20.6332393 63.9256161 20.5913566 80.9808144 17.613783 81.0498041"></polygon>
                </g>
                <path d="M246.5,96.5 C244.843146,96.5 243.5,95.5279866 243.5,94.3289474 L243.5,91.1710526 C243.5,89.9720134 244.843146,89 246.5,89" id="Rectangle-25" stroke="#4A4A4A" stroke-width="0.5" fill="#E8BD9F" transform="translate(245.000000, 92.750000) rotate(-26.000000) translate(-245.000000, -92.750000) "></path>
                <g id="Diploma-full" transform="translate(61.500000, 99.000000)">
                    <path d="M5.24210926,4.4927033 C7.27758517,4.4927033 9.40029209,3.90010886 9.40029209,2.93361055 C9.40029209,1.96711224 7.27758517,0.992703301 5.24210926,0.992703301 C3.20663336,0.992703301 1.31767299,1.75300986 1.31767299,2.71950817 C1.31767299,3.68600648 3.20663336,4.4927033 5.24210926,4.4927033 Z" id="Oval-10" fill="#E3E0E0" transform="translate(5.358983, 2.742703) rotate(-8.000000) translate(-5.358983, -2.742703) "></path>
                    <path d="M5.9682906,2.54286579 C7.29156765,3.5797213 8.55403184,4.09814905 9.75568318,4.09814905 C10.9573345,4.09814905 12.3904602,3.71141958 14.0550603,2.93796063 L12.969723,67.8621645 C12.0102529,69.0335215 10.8002713,69.6395376 9.33977815,69.6802126 C7.87928502,69.7208876 6.39509398,69.2176969 4.88720503,68.1706405 L5.9682906,2.54286579 Z" id="Rectangle" fill="#FAFAF0" transform="translate(9.471133, 36.112680) rotate(-8.000000) translate(-9.471133, -36.112680) "></path>
                </g>
                <g id="Right-thumb" transform="translate(241.510924, 91.926907) rotate(17.000000) translate(-241.510924, -91.926907) translate(239.010924, 89.926907)">
                    <g id="path-1-link" fill="#E8BD9F">
                        <path d="M0.5,1.7386368 C0.905095,1.5504652 1.238945,1.3293625 2.415708,0.8299551 C3.59247,0.3305477 4.221248,0.5124916 4.529157,0.640986 C4.837067,0.7694805 5.140293,1.2636928 4.930441,1.5543703 C4.720588,1.8450477 4.280047,2.1210786 3.632557,2.5301993 C2.985068,2.9393201 2.659218,3.0748992 1.760592,3.5" id="path-1"></path>
                    </g>
                    <path d="M0.874397,1.8322059 L1.842556,3.184967 C2.008043,3.1070614 2.20713,3.0134853 2.248487,2.9939396 C2.441278,2.9028247 2.575884,2.8376665 2.701221,2.7742641 C2.770125,2.7394091 2.835282,2.7055188 2.899068,2.6713125 C3.089298,2.5692988 3.275956,2.4597966 3.499017,2.3188537 C4.27716,1.8271783 4.501598,1.6701554 4.67384,1.4750715 C4.694075,1.4521522 4.712004,1.4298377 4.727744,1.4080348 C4.810999,1.2927147 4.644476,0.9600054 4.432876,0.8717023 C3.968441,0.6778875 3.410593,0.6793166 2.513374,1.0600883 C2.036888,1.2623045 1.673338,1.4292089 1.347241,1.5911717 C1.25505,1.6369602 1.035662,1.7498441 0.874397,1.8322059 Z" id="Path" stroke="#4A4A4A" stroke-width="0.5"></path>
                </g>
                <path d="M144.5,79 C146.074962,79.7655829 147.188604,80.2309057 147.840927,80.3959685 C149.572463,80.834114 150.766579,80.8901276 151.259655,80.8901276 C151.731159,80.8901276 152.76377,80.7966146 154.367738,80.3959685 C155.048571,80.225907 156.259325,79.7605842 158,79 C156.167772,80.7290071 155.141313,81.6576319 154.920621,81.7858745 C154.589584,81.9782385 153.763069,82.1864041 153.297118,82.3468609 C152.852417,82.5 151.513112,82.5 151.217595,82.5 C150.959446,82.5 150.129509,82.5 149.631531,82.3468609 C149.135529,82.1943294 148.339194,82.0617589 147.840927,81.7858745 C147.508749,81.6019517 146.395107,80.6733268 144.5,79 Z" id="Chin-shadow" fill="#DEA883"></path>
                <path d="M149.5,34.6236772 C149.5,34.6236772 162.379098,32.4759958 170.04663,46.0800927 C171.156171,48.0486936 172.144365,51.2829103 173.011212,55.7827428 C173.662929,59.1658336 173.662929,67.9049193 173.011212,82" id="Path-14" stroke="#4A4A4A" stroke-width="1.6875"></path>
                <path d="M133.189748,46.0197035 C134.845268,42.3385335 136.453593,40.0522368 138.014721,39.1608133 C139.127297,38.5255183 140.522463,37.1983783 143.49372,36.3214535 C144.292323,36.0857568 145.602258,35.8119389 147.423524,35.5 C147.642397,36.7109146 147.828198,37.6109101 147.980927,38.1999866 C148.133657,38.7890631 148.306681,39.2730569 148.5,39.6519678 C146.606355,39.4736868 145.31418,39.4736868 144.623475,39.6519678 C143.117457,40.0406931 141.298926,41.0193719 140.492508,41.7242791 C138.84065,43.1682041 137.759274,44.886764 137.248381,46.8799589 C136.480597,49.4021017 136.000534,51.0321464 135.808194,51.7700928 C135.699033,52.1889063 134.925438,54.9693501 134.929483,55.9797672 C134.931621,56.5138033 134.683602,59.141879 134.634722,59.8756995 C134.429758,62.952712 134.057359,67.773904 134.736264,74.1441007 C134.928899,75.9516102 135.657445,78.9035767 136.921902,83 C134.112723,82.1045234 132.356381,78.9340882 131.652875,73.4886947 C131.294263,70.7129076 131.024355,67.38545 131.000295,62.9454823 C130.98996,61.0383296 131.25536,58.8587687 131.199178,56.5400702 C131.15277,54.6248146 131.816294,51.1180257 133.189748,46.0197035 Z" id="Rectangle-10" fill="#4A4A4A"></path>
                <path d="M133.08624,41.8421404 C133.933738,40.5523398 135.96489,38.4068958 137.936779,37.1089174 C140.082257,35.6966757 141.298668,35.5784097 142.749691,35.2999298 C144.113643,35.0381604 145.572276,34.7715171 147.125589,34.5 L147.5,35.7214033 C144.640326,37.1139892 142.467093,37.9793652 140.980302,38.3175313 C140.083431,38.5215217 137.019616,39.7372581 136.135617,40.7517974 C135.654986,41.3034031 134.669854,42.6886818 133.702787,45.0833106 C133.394963,45.8455359 132.37045,47.8940877 131.710499,51.8527646 C131.548058,52.8271557 131.180252,54.4150275 130.998482,56.4679983 C130.955514,56.953293 131.71027,58.2804756 131.710499,60.439182 C131.710596,61.3583391 130.421918,65.0886181 131.224119,70.4622772 C131.517788,72.4294611 132.344011,75.8694197 133.702787,80.7821528 C135.131316,82.9347278 135.821917,84.0073309 135.77459,83.9999623 C133.702787,83.6773872 132.581288,83.3814127 131.710499,82.1823625 C130.83971,80.9833123 130.25054,79.1302118 130.207163,78.8812048 C130.117668,78.3674571 129.372439,73.1734222 129.103562,68.3120647 C128.870548,64.0991182 129.103562,60.1244203 129.103562,59.8045461 C129.103562,59.1155661 129.226015,57.6867215 129.417197,55.5910777 C129.646151,53.0813921 130.207163,50.7558375 130.207163,50.1613692 C130.207163,48.8439382 132.238743,43.131941 133.08624,41.8421404 Z" id="Rectangle-11" fill="#4A4A4A"></path>
                <path d="M148.5,35.5 C145.838412,35.9447912 143.939221,36.4049064 142.802427,36.8803457 C142.137899,37.1582704 141.502833,37.4746257 140.897231,37.8294116 C137.52661,39.8040566 135.068691,42.9691828 133.523474,47.3247902 C131.078467,54.2166942 130.410195,65.5222287 131.518658,81.2413936 C131.545933,81.6281865 131.589267,82.2143886 131.648659,83" id="Path-13" stroke="#4A4A4A" stroke-width="1.6875"></path>
                <path d="M147,35.8162115 C151.786257,35.3398561 155.115421,35.4017033 156.987493,36.0017531 C158.059262,36.3452842 161.940706,37.4016886 163.073662,38.1972066 C163.546007,38.5288691 166.233442,40.7206865 167.445921,42.0447884 C169.076101,43.8250449 169.260446,44.5360805 169.990406,46.4309242 C170.481365,47.7053656 171.298895,49.7500846 171.999785,52.741426 C172.289406,53.9775068 172.690296,56.1908254 173.202453,59.3813818 C173.36487,63.4810942 173.462584,66.5341831 173.495598,68.5406484 C173.569675,73.0428787 172.686846,77.1934737 172.507835,77.6441005 C172.325343,78.103487 172.590405,79.2797293 171.999785,81.1964437 C171.824487,81.7653305 170.778937,82.3695917 170.617961,83.0770356 C170.549926,83.3760291 170.139656,81.3387652 169.990406,81.5414147 C169.67556,81.9689083 169.176578,82.62177 168.493461,83.5 C170.080962,74.7585648 170.698054,68.8678033 170.344736,65.8277155 C169.872167,61.7615281 169.469005,57.9697804 169.077621,55.9875608 C168.281352,51.9547434 166.863399,49.4646522 165.855443,47.8060676 C163.895211,44.5805188 163.957795,45.1469075 162.291177,43.3639199 C161.797187,42.8354381 160.868468,42.0076474 159.423284,41.311966 C158.089852,40.6700791 155.091403,39.6739972 152.927342,39.6739972 C152.523156,39.6739972 151.261262,39.7945364 149.141661,40.0356146 C149.461574,39.6301254 149.332049,39.0173228 148.753088,38.1972066 C148.174126,37.3770905 147.589764,36.5834254 147,35.8162115 Z" id="Rectangle-12" fill="#4A4A4A"></path>
                <path d="M139.127365,38.6701648 C139.579682,38.0569243 140.329423,37.5995281 141.376586,37.2979764 C142.42375,36.9964247 143.422284,36.9237504 144.372191,37.0799536 L147,37.6050689 C145.202758,37.6050689 143.973478,37.6050689 143.312162,37.6050689 C142.901574,37.6050689 141.425036,37.9129877 141.376586,37.9285719 C140.958201,38.0631493 140.050887,38.6324098 139.694779,38.8989882 C139.663951,38.9220662 139.099024,39.4557368 138,40.5 L139.127365,38.6701648 Z" id="Hair-line-3" fill="#000000"></path>
                <path d="M151.143462,39.536095 C152.376207,38.3799068 153.486607,37.6612144 154.47466,37.380018 C155.462713,37.0988216 156.215995,36.9736798 156.734506,37.0045926 C157.547556,37.0834715 158.180283,37.1321316 158.632688,37.150573 C159.085093,37.1690144 160.040864,37.2901964 161.5,37.5141191 C160.202142,37.4247183 159.350369,37.380018 158.944682,37.380018 C158.50876,37.380018 157.463033,37.3273673 156.919549,37.380018 C156.108978,37.458543 155.817606,37.559296 155.283689,37.6279861 C154.899908,37.6773609 153.685985,37.9653728 153.277637,38.2242564 C152.93266,38.4429642 152.435118,38.7584757 152.099112,39.0070595 C152.070024,39.0285798 151.536986,39.5262266 150.5,40.5 L151.143462,39.536095 Z" id="Hair-line-2" fill="#000000" transform="translate(156.000000, 38.750000) scale(-1, 1) translate(-156.000000, -38.750000) "></path>
                <path d="M153.134784,35.3554966 C154.172504,35.0924449 154.963651,34.9753781 155.508226,35.0042963 C156.362145,35.0780853 157.026678,35.1236056 157.501823,35.140857 C157.976969,35.1581084 158.976361,35.417931 160.5,35.9203248 C159.145746,35.5437726 158.25558,35.3554966 157.8295,35.3554966 C157.371665,35.3554966 156.270711,35.3554966 155.696862,35.3554966 C154.840462,35.3554966 154.856059,35.2912388 154.295304,35.3554966 C153.892231,35.4016853 152.685818,35.6781461 152.256944,35.9203248 C151.894626,36.12492 150.992722,36.6450067 150.639826,36.8775501 C150.609275,36.8976817 150.229333,37.105165 149.5,37.5 C150.88547,36.3333827 152.097065,35.6185483 153.134784,35.3554966 Z" id="Hair-lines" fill="#000000" transform="translate(155.000000, 36.250000) scale(-1, 1) translate(-155.000000, -36.250000) "></path>
                <g id="Right-leg" transform="translate(153.500000, 202.000000)">
                    <path d="M0,0 L20.5,0 L18.8561794,10.2821212 C18.3420992,14.1192014 17.9508665,16.4170897 17.6824815,17.1757858 C17.279904,18.3138301 16.4768157,19.4449071 16.3030838,20.5378376 C16.2082183,21.1346269 16.8421796,27.3640669 16.8421796,29.1153975 C16.8421796,35.3585256 16.4921304,41.6205703 16.3030838,43.4487213 C15.9052833,47.2956004 15.1144767,54.3126933 13.9306641,64.5 L5.5473881,64.5 C4.69885323,54.4028589 4.15392,47.385766 3.91258842,43.4487213 C3.77727872,41.2413006 3.6180575,35.6690527 3.41590425,29.1153975 C3.35898916,27.2702535 4.00218098,21.1077781 3.91258842,20.5378376 C3.52952237,18.100974 2.11061444,14.75644 1.10007308,9.58729917 C0.751226245,7.80287105 0.384535219,4.60710466 0,0 Z" id="Path" fill="#E8BD9F"></path>
                    <ellipse id="Right-knee-shadow" fill="#DEA883" cx="10" cy="20.75" rx="3.5" ry="1.75"></ellipse>
                    <path d="M12.5245887,63.9658815 L20.7387767,63.9658815 C20.7402536,64.4795164 20.8498054,64.8836884 21.0674322,65.1783976 C21.2907718,65.4808432 22.0181306,66.0893668 22.1230442,66.4579225 C22.3103743,67.116003 21.7603968,67.5371013 21.6895594,67.8430647 C21.3661386,69.2399967 20.220228,70.3514019 20.0149379,71.1501 C19.6467368,72.5826174 18.221581,74.9773569 15.7394707,78.3343185 C12.1092525,79.7374456 9.4981882,80.2355668 7.90627779,79.828682 C6.99350161,79.5953807 5.39392267,79.9668229 4.86026558,79.0640634 C4.59556046,78.6162757 4.59556046,77.4461364 4.86026558,75.5536453 C7.23868432,72.8211218 9.11250563,70.6648175 10.4817295,69.0847325 C10.6802372,68.8556545 11.2368849,68.4887175 11.8595876,66.7165952 C11.9761038,66.3850068 12.1977709,65.4681022 12.5245887,63.9658815 Z" id="Right-foot" fill="#E8BD9F" transform="translate(13.411737, 71.965882) scale(-1, 1) rotate(4.000000) translate(-13.411737, -71.965882) "></path>
                    <path d="M6.84148021,74.6976416 C6.84148021,74.6722225 6.84148021,74.6966739 6.84148021,74.7709956 C6.84148021,75.6855246 6.84148021,76.3179333 6.84148021,76.5694027 C6.84148021,77.8330812 8.07526272,78.7565708 8.78832028,78.9575011 C9.46973812,79.1495158 11.3749529,79.6149819 13.3274485,79.3412849 C13.7359213,79.284026 14.274756,79.2715895 15.0114932,78.9575011 C15.3763872,78.8019382 16.0255757,78.4399711 16.9590589,77.8715998 C19.5154388,75.5902269 21.2506396,73.4780126 22.1646612,71.5349569 C22.8252192,70.1307217 23.4962288,68.2107061 23.744561,67.2169704 C23.9369614,66.4470532 23.5949326,65.8422203 23.6411169,65.5804994 C23.6941207,65.2801334 24.1274753,65.3932706 24.2612361,65.5804994 C24.5077895,65.9256073 25.4449617,67.4863416 25.21358,68.8214203 C25.0247588,69.9109238 24.2612361,72.029101 23.237973,73.8044122 C22.2147099,75.5797234 21.3235986,77.1182421 19.0209132,80.1587657 C18.4172537,80.9558528 16.9378716,82.0659745 16.6106726,82.2905984 C15.0102551,83.3892938 13.2252974,83.5840393 12.1851102,83.8107302 C10.7882041,84.1151619 8.09087529,83.896129 7.26676056,83.5399441 C5.31521789,82.6964813 5.31732185,82.6789433 4.82744981,82.2905984 C4.33757778,81.9022536 3.43453141,81.0623282 3.86144111,78.9575011 C4.14604758,77.5542831 5.13939395,76.1343299 6.84148021,74.6976416 Z" id="Right-shoe" fill="#0C0C0C" transform="translate(14.500000, 74.675120) scale(-1, 1) translate(-14.500000, -74.675120) "></path>
                </g>
                <g id="Left-leg" transform="translate(123.500000, 202.000000)">
                    <path d="M6,0 L26.5,0 C25.796475,4.99374231 25.2485348,8.42111603 24.8561794,10.2821212 C23.8521605,15.0443449 22.7172761,17.9321945 22.3030838,20.5378376 C22.2082183,21.1346269 22.8421796,27.3640669 22.8421796,29.1153975 C22.8421796,35.3585256 22.4921304,41.6205703 22.3030838,43.4487213 C21.9052833,47.2956004 21.1144767,54.3126933 19.9306641,64.5 L11.5473881,64.5 C10.6988532,54.4028589 10.15392,47.385766 9.91258842,43.4487213 C9.77727872,41.2413006 9.6180575,35.6690527 9.41590425,29.1153975 C9.35898916,27.2702535 10.002181,21.1077781 9.91258842,20.5378376 C9.67311564,19.0144384 8.7163273,17.9706358 8.44879305,17.0838994 C8.01689646,15.6523877 7.47887703,11.5249645 7.10007308,9.58729917 C6.75122625,7.80287105 6.38453522,4.60710466 6,0 Z" id="Path" fill="#E8BD9F"></path>
                    <ellipse id="Left-knee-shadow" fill="#DEA883" cx="16" cy="20.75" rx="3.5" ry="1.75"></ellipse>
                    <path d="M11.1745831,63.8408815 L19.3887711,63.8408815 C19.390248,64.3545164 19.4997998,64.7586884 19.7174266,65.0533976 C19.9407662,65.3558432 20.668125,65.9643668 20.7730386,66.3329225 C20.9603687,66.991003 20.4103911,67.4121013 20.3395538,67.7180647 C20.016133,69.1149967 18.8702224,70.2264019 18.6649323,71.0251 C18.2967312,72.4576174 16.8715754,74.8523569 14.3894651,78.2093185 C10.7592469,79.6124456 8.14818262,80.1105668 6.5562722,79.703682 C5.64349603,79.4703807 4.04391709,79.8418229 3.51026,78.9390634 C3.24555487,78.4912757 3.24555487,77.3211364 3.51026,75.4286453 C5.88867873,72.6961218 7.76250005,70.5398175 9.13172394,68.9597325 C9.33023161,68.7306545 9.88687928,68.3637175 10.509582,66.5915952 C10.6260982,66.2600068 10.8477653,65.3431022 11.1745831,63.8408815 Z" id="Left-foot" fill="#E8BD9F" transform="translate(12.061731, 71.840882) rotate(4.000000) translate(-12.061731, -71.840882) "></path>
                    <path d="M3.2414741,74.6426489 C3.2414741,74.6172298 3.2414741,74.6416812 3.2414741,74.716003 C3.2414741,75.6305319 3.2414741,76.2629407 3.2414741,76.51441 C3.2414741,77.7780886 4.47525661,78.7015781 5.18831417,78.9025085 C5.869732,79.0945232 7.77494676,79.5599892 9.72744239,79.2862922 C10.1359152,79.2290333 10.6747499,79.2165969 11.4114871,78.9025085 C11.7763811,78.7469456 12.4255696,78.3849785 13.3590528,77.8166071 C15.9154327,75.5352342 17.6506335,73.4230199 18.564655,71.4799642 C19.2252131,70.075729 19.8962227,68.1557134 20.1445549,67.1619777 C20.439806,65.9804891 20.071984,65.543594 20.1445549,65.4779657 C20.1735485,65.4517457 20.5897734,65.425487 20.66123,65.5255068 C20.9077834,65.8706146 21.8449556,67.4313489 21.6135739,68.7664277 C21.4247527,69.8559312 20.66123,71.9741084 19.6379669,73.7494196 C18.6147038,75.5247308 17.7235925,77.0632494 15.420907,80.103773 C14.8172476,80.9008601 13.3378655,82.0109819 13.0106665,82.2356058 C11.410249,83.3343012 9.62529129,83.5290466 8.58510412,83.7557375 C7.18819798,84.0601692 4.49086917,83.8411363 3.66675445,83.4849514 C1.71521178,82.6414886 1.71731574,82.6239506 1.2274437,82.2356058 C0.737571662,81.847261 -0.165474702,81.0073355 0.261435,78.9025085 C0.546041468,77.4992904 1.53938783,76.0793373 3.2414741,74.6426489 Z" id="Left-shoe" fill="#0C0C0C"></path>
                </g>
                <g id="Dress" transform="translate(122.000000, 84.500000)">
                    <path d="M12.6726749,1.10799788 L16.21193,0 C18.1861039,4.07257271 19.3263785,6.3007807 19.6327536,6.68462397 C20.3161057,7.54076434 21.913532,8.89079718 24.2911928,9.50722082 C25.2586401,9.75803767 27.0550134,10.0343063 29.6803125,10.3360266 C32.8376133,10.1385172 34.9187227,9.8622486 35.9236408,9.50722082 C38.0184402,8.76714859 39.0256511,7.54952304 39.768058,6.68462397 C40.0495889,6.35664243 40.9764359,4.12843444 42.5485991,0 L46.918736,1.10799788 C45.9323006,11.2783579 45.8628696,17.8471847 46.7104428,20.8144781 C47.0200079,21.4525767 47.3641692,21.918263 47.7429269,22.2115369 C48.8040574,23.0331757 50.9286572,23.6825933 50.938589,24.1292961 C50.9847547,26.2057042 49.4310593,38.2292463 49.4310593,41.4559201 C49.4310593,43.4313588 52.7694127,65.8026801 53.4402401,70.2475913 C54.0070252,74.0031172 54.9604656,79.9693336 55.9134273,87.6073864 C56.5932473,93.0561905 57.7887716,103.353728 59.5,118.5 L0,118.5 C1.66370409,103.349694 2.83097576,93.0521565 3.50181502,87.6073864 C4.44531619,79.9495951 5.23744218,74.0728238 5.70805153,70.2475913 C6.38026192,64.7836942 9.86723366,42.6440445 9.86723366,41.4559201 C9.86723366,40.2677957 8.78480965,26.1433858 8.8429147,24.1292961 C8.85359864,23.7589595 11.1524768,23.519499 11.9498811,22.2115369 C12.7472855,20.9035749 12.6462345,20.8696727 12.6726749,20.8144781 C14.0699503,17.8976445 14.0699503,11.3288177 12.6726749,1.10799788 Z" id="Path" fill="#FBEFB5"></path>
                    <polygon id="Waistline/belt" fill="#F1D85E" points="9.88042016 41.5 49.4513409 41.5 49.75 44.3 9.5 44.3"></polygon>
                </g>
                <path d="M163.5,36.5 L161.167388,29 C160.823851,27.8954305 156.271756,27 151,27 C145.728244,27 141.176149,27.8954305 140.832612,29 L138.5,36.5 L138.75,36.5 C139.0025,35.6715729 144.487012,35 151,35 C157.512988,35 163.2475,35.6715729 163.5,36.5 Z" id="Grad-cap-base" fill="#2F2E2E"></path>
                <g id="Tassel" filter="url(#filter-1)" transform="translate(170.500000, 25.000000)">
                    <g id="Tassel-top">
                        <g id="path-2-link" transform="translate(0.000000, 1.000000)" fill="#120AB5">
                            <path d="M0.5,0.0500030518 L1.21509832,0.61554526 C1.29568289,0.879987962 1.34573253,1.05977901 1.36524727,1.15491841 C1.46874282,1.65948604 1.47473379,1.93818075 1.48567335,2.14110381 C1.49970699,2.40142049 1.49970699,2.71692982 1.48567335,3.0876318 L0.955346294,3.0876318 C1.06070738,2.71948822 1.11338792,2.40397889 1.11338792,2.14110381 C1.11338792,1.87822873 1.06070738,1.54950026 0.955346294,1.15491841 L0.5,0.0500030518 Z" id="path-2"></path>
                        </g>
                        <path d="M1.24313401,3.8376318 C1.24197958,3.8898022 1.2404986,3.94329681 1.2386904,3.99811307 C1.23782018,4.02449414 1.23687417,4.05118133 1.2358523,4.07817434 L1.48567335,3.8376318 L0.955346294,3.8376318 L1.1956967,4.15641904 C1.21107783,4.10267562 1.22541038,4.04990878 1.2386904,3.99811307 C1.25268163,3.9435435 1.26550458,3.89005186 1.27715466,3.8376318 C1.33446082,3.57978005 1.36338792,3.34785634 1.36338792,3.14110381 C1.36338792,2.85363695 1.30741637,2.50437249 1.19688379,2.09042316 L0.731141443,0.95474743 L0.344921595,1.24609152 L0.998551951,1.76302122 C1.06370988,1.97953456 1.10463919,2.12857676 1.12034607,2.20515188 C1.19674818,2.57763201 1.21603402,2.76172884 1.23443337,3.12383899 C1.23522331,3.13928749 1.23522331,3.13928749 1.23603584,3.15456174 C1.2465135,3.34891685 1.24890765,3.57671334 1.24313401,3.8376318 Z" id="Path" stroke="#979797" stroke-width="0.5"></path>
                    </g>
                    <g id="Tassel-top" transform="translate(0.000000, 1.000000)">
                        <g id="path-3-link" fill="#120AB5">
                            <path d="M1,0.528452091 L1.31118065,0.632238526 C1.37395941,0.658656885 1.41883767,0.68272738 1.44581541,0.70445001 C1.48657286,0.737268142 1.49321835,0.739557768 1.55530788,0.829666844 C1.65021592,0.967404656 1.53562829,0.829666844 1.74534461,1.50278905 C1.76516847,1.56641731 1.8519031,1.94703736 1.8487285,2.10500022 C1.84727249,2.17744877 1.74290575,2.51516948 1.53562829,3.11816235 L1.2195406,3.11816235 C1.38482244,2.5103381 1.46024738,2.13398304 1.44581541,1.98909718 C1.43138344,1.84421132 1.4057433,1.68210861 1.36889498,1.50278905 C1.32060568,1.31792858 1.27082088,1.18457951 1.2195406,1.10274185 C1.16826031,1.02090419 1.09508011,0.829474271 1,0.528452091 Z" id="path-3"></path>
                        </g>
                        <path d="M1.34944633,0.971515442 C1.3530305,0.976717053 1.3556989,0.980614732 1.35758318,0.98323599 C1.38143546,1.14600537 1.40697142,1.2571823 1.50666066,1.57715284 C1.53646702,1.67282169 1.6006911,2.00483267 1.59877897,2.09997694 C1.59821621,2.12797921 1.51037343,2.41501502 1.35680555,2.86816235 L1.2195406,2.86816235 L1.31448376,2.9923704 C1.30945049,3.00706525 1.30435786,3.02190696 1.29920648,3.03689288 L1.33111119,3.01412299 L1.46078069,3.18376126 C1.63573229,2.54037648 1.71337458,2.15295728 1.69458431,1.9643175 C1.67924442,1.8103168 1.65227478,1.63980871 1.61377822,1.45246808 C1.55661767,1.23226611 1.49896637,1.07784655 1.43138675,0.969996958 C1.39542466,0.912605441 1.32686581,0.733264373 1.23839101,0.453154502 L0.920902211,0.765609295 L1.23208286,0.869395731 C1.25732063,0.880807402 1.28396568,0.895098498 1.28902435,0.899171767 C1.30451519,0.911569012 1.30472862,0.911739823 1.30925047,0.915487437 C1.31128055,0.917588853 1.32141969,0.930841026 1.34944633,0.971515442 Z" id="Path" stroke="#979797" stroke-width="0.5"></path>
                    </g>
                    <g id="tassel-middle" transform="translate(0.000000, 3.000000)">
                        <g id="path-4-link" fill="#FFCB46">
                            <path d="M0.94400265,1.0616261 C1.08561692,1.00495608 1.18895584,0.98115026 1.25401941,0.99020865 C1.35161476,1.00379623 1.46437063,1.01927741 1.53184585,1.09499035 C1.59932107,1.17070329 1.61705269,1.46552414 1.60266839,1.72120928 C1.59307886,1.89166605 1.50199612,2.2656368 1.32942018,2.84312156 C1.26541907,2.80663064 1.17430115,2.76797028 1.05606643,2.72714046 C0.937831711,2.68631065 0.804379315,2.67569899 0.655709243,2.69530547 C0.691421437,2.13989214 0.726694034,1.76110061 0.761527033,1.55893088 C0.796360032,1.35676115 0.857185237,1.19099289 0.94400265,1.0616261 Z" id="path-4"></path>
                        </g>
                        <path d="M1.11349248,1.26529441 C1.06680414,1.35463993 1.03114774,1.46643234 1.00789693,1.60137938 C0.980723357,1.759094 0.952317531,2.04090685 0.923421275,2.44283161 C0.997674953,2.45123683 1.06915739,2.46717441 1.13766988,2.49083372 C1.14820985,2.49447347 1.15857513,2.49810574 1.16876695,2.50173168 C1.28448387,2.09582523 1.34637719,1.82601056 1.35306307,1.70716702 C1.36517327,1.49190462 1.34273718,1.25854981 1.34520768,1.26132192 C1.34656242,1.26284206 1.32955036,1.25574286 1.28518139,1.24777557 C1.25515835,1.24278835 1.25515835,1.24278835 1.219546,1.23782041 C1.21196787,1.23676535 1.17382784,1.24478893 1.11349248,1.26529441 Z" id="Path" stroke="#979797" stroke-width="0.5"></path>
                    </g>
                    <path d="M1.07527398,4.25212932 C1.06261759,4.27587296 0.970267291,4.41170535 0.931051164,4.75542898 C0.924683142,4.81124376 0.951687333,4.88531192 0.931051164,5.11058278 C0.925241133,5.17400689 0.901751605,5.3064128 0.86058258,5.50780051" id="Path-15" stroke="#FFB700" stroke-width="0.5"></path>
                    <path d="M1.27601583,4.25 C1.26335945,4.27374364 1.17100915,4.40957603 1.13179302,4.75329966 C1.12616912,4.80259232 1.15974906,4.90611517 1.16110915,5.06371322 C1.16166272,5.12785688 1.12979529,5.26815907 1.06550686,5.48461979" id="Path-15" stroke="#FFB700" stroke-width="0.5"></path>
                    <path d="M1.46050897,4.30000305 C1.41019293,4.30000305 1.39447061,4.47492251 1.35525449,4.81864614 C1.34963059,4.8679388 1.3442422,4.95611822 1.34560229,5.11371627 C1.34615586,5.17785993 1.31428843,5.31816213 1.25,5.53462285" id="Path-15" stroke="#FFB700" stroke-width="0.5"></path>
                    <path d="M0.83450769,7.06941173 C0.808936819,7.56763069 0.77711295,7.93404469 0.739036085,8.16865371 C0.586396908,9.10913366 0.608287693,10.0706468 0.624905059,11.1023439 C0.637722158,11.8980996 0.60752423,12.7353416 0.739036085,13.6385488 C0.790019928,13.9886996 0.97105766,14.3956527 1.08426376,14.8697573 C1.55204687,16.8288221 2.36662859,19.7393962 2.96499461,22.5949697 C3.78035111,26.4860836 3.97625528,29.6302141 3.97625528,30.7060188 C3.97625528,31.7374034 4.32286599,35.7795812 4.32286599,36.0676738 C4.32286599,36.3557664 4.31155071,38.0027478 4.32286599,38.1261621 C4.44008341,39.4046368 4.82090014,41.4327314 5.46531619,44.210446" id="Path-16" stroke="#FFDA56" stroke-width="0.5"></path>
                    <path d="M0.651227741,7 C0.177282567,8.91331028 0.123218682,11.1261599 0.489036085,13.6385488 C0.750692145,15.4355705 1.9718207,19.0483316 2.71499461,22.5949697 C3.53035111,26.4860836 4.00946888,29.5080672 4.00946888,30.5838719 C4.00946888,31.6596765 3.73542523,34.3469474 4.00946888,37.3359048 C4.12668629,38.6143795 4.5286354,40.9058932 5.21531619,44.210446" id="Path-16" stroke="#E4B977" stroke-width="0.5"></path>
                    <path d="M0.988232837,7.01891587 C0.963607007,7.15559028 0.936632474,7.36052404 0.90730924,7.63371716 C0.871784265,7.96468948 0.825163104,8.42929359 0.767445756,9.02752951 C0.573676597,11.0359321 0.939553425,12.6983008 1.16034051,13.9597 C1.38112759,15.2210992 1.80221888,15.920823 1.88348707,17.0362158 C1.96475525,18.1516087 2.39683165,19.3518986 2.51346848,19.8994601 C2.63010531,20.4470216 3.69803923,25.0968086 3.98746908,27.4448453 C4.15299161,28.7876679 3.69010053,32.0151078 3.98746908,35.6633012 C4.12154215,37.3081438 4.66996226,40.1529515 5.63272942,44.1977243" id="Path-17" stroke="#C39033" stroke-width="0.5"></path>
                    <path d="M0.794987637,7.00758786 C0.321042463,8.92089814 0.266978578,11.1337477 0.632795981,13.6461367 C0.89445204,15.4431583 2.11558059,19.0559195 2.85875451,22.6025575 C3.674111,26.4936715 4.15322877,29.515655 4.15322877,30.5914597 C4.15322877,31.6672644 3.87918512,34.3545352 4.15322877,37.3434927 C4.27044619,38.6219674 4.67239529,40.9134811 5.35907608,44.2180338" id="Path-16" stroke="#E28E38" stroke-width="0.5"></path>
                    <path d="M4.11725056,7.06941173 C4.09167969,7.56763069 4.05985582,7.93404469 4.02177896,8.16865371 C3.86913978,9.10913366 3.89103056,10.0706468 3.90764793,11.1023439 C3.92046503,11.8980996 3.8902671,12.7353416 4.02177896,13.6385488 C4.0727628,13.9886996 4.25380053,14.3956527 4.36700664,14.8697573 C4.67522231,16.1605574 4.06166471,18.1070637 3.73134954,19.8566085 C3.5603409,20.7623716 2.74804646,24.4256566 2.59591565,25.235339 C2.15569115,27.5783359 1.78490718,29.0358856 1.78490718,29.8353983 C1.78490718,29.9192043 1.53366559,31.8255143 1.53366559,32.0901977 C1.53366559,32.3782904 1.68981522,37.4147058 1.39950862,38.714419 C1.23975204,39.429655 0.993288816,41.2562249 0.660118955,44.1941286" id="Path-16" stroke="#FFDA56" stroke-width="0.5" transform="translate(2.555624, 25.631770) scale(-1, 1) translate(-2.555624, -25.631770) "></path>
                    <path d="M4.01283313,7.00029268 C3.59363624,8.91340784 3.5669465,11.1261599 3.9327639,13.6385488 C4.12049772,14.9278816 3.88193409,16.4775648 3.72696101,18.9103301 C3.66593867,19.8682579 3.28165088,21.4801973 3.10022559,22.6360165 C2.56418431,26.0510133 1.62583971,29.052224 1.62583971,30.1280287 C1.62583971,30.7816575 1.73123411,31.2935402 1.62583971,32.3847168 C1.55776595,33.0895027 1.51311772,34.0499452 1.41172768,35.2852635 C1.29878947,36.6612827 1.04361739,39.6593586 0.64621145,44.279491 L4.01283313,7.00029268 Z" id="Path-16" stroke="#E4B977" stroke-width="0.5" transform="translate(2.329522, 25.639892) scale(-1, 1) translate(-2.329522, -25.639892) "></path>
                    <path d="M4.43654598,7.01891587 C4.41192015,7.15559028 4.38494562,7.36052404 4.35562238,7.63371716 C4.32009741,7.96468948 4.27347625,8.42929359 4.2157589,9.02752951 C4.02198974,11.0359321 4.38786657,12.6983008 4.60865365,13.9597 C4.74912807,14.7622575 4.70877692,15.7258231 4.60865365,16.6030939 C4.55141073,17.104651 4.27719871,17.9811952 4.2157589,18.1450736 C3.75719911,19.3681898 3.87178327,20.6082426 3.69885335,21.2077669 C3.52592343,21.8072913 2.74786481,26.0717144 2.4017516,28.1431736 C2.31675154,28.651892 2.01449798,29.3412449 1.86602539,30.412274 C1.67528903,31.7881792 1.86602539,33.6173376 1.86602539,35.840338 C1.86602539,36.1935991 1.64869791,38.3523347 1.00303122,42.3581915 C0.938398328,42.7591881 0.885466661,43.4087577 0.844236226,44.3069004" id="Path-17" stroke="#C39033" stroke-width="0.5" transform="translate(2.771870, 25.662908) scale(-1, 1) translate(-2.771870, -25.662908) "></path>
                    <path d="M5.88821366,7.00758786 C5.41426849,8.92089814 5.3602046,11.1337477 5.726022,13.6461367 C5.98767806,15.4431583 4.91907405,17.8626344 4.37570044,22.1343386 C4.01736087,24.9514071 2.52857122,29.9246014 2.52857122,31.0004061 C2.52857122,32.0762108 2.25452758,34.7122023 2.52857122,37.7011598 C2.64578864,38.9796345 2.03888099,41.1117404 0.70784827,44.0974775" id="Path-16" stroke="#E28E38" stroke-width="0.5" transform="translate(3.298031, 25.552533) scale(-1, 1) translate(-3.298031, -25.552533) "></path>
                    <path d="M1.07086233,7.09388915 C1.07086233,7.09388915 0.950967256,8.30181604 0.711177101,10.7176698 L1.1821963,17.703679 C1.281772,18.5415964 1.38405296,19.1712023 1.48903918,19.5924967 C1.55444691,19.8549684 1.92861803,20.5379638 2.38893606,22.2150157 C2.57462967,22.8915432 2.88836579,24.2795793 3.33014442,26.3791239 L3.33014442,31.9372382 L3.13554318,37.4244143 L3.73351368,44.0502891" id="Path-18" stroke="#1E2484" stroke-width="0.5"></path>
                    <path d="M0.823291598,7.12636398 L0.467960172,9.04894905 C0.240124221,10.2733262 0.136906784,11.0865504 0.158307863,11.4886217 C0.179708942,11.8906929 0.282926378,12.9608277 0.467960172,14.699026 C0.50959238,15.9950501 0.574239221,16.9659103 0.661900694,17.6116065 C0.749562168,18.2573028 0.951270049,19.2483564 1.26702434,20.5847672 L1.97841102,23.5174762 C2.15647251,24.6920491 2.29354107,25.4933744 2.38961669,25.9214523 C2.48569231,26.3495302 2.62418323,26.7759972 2.80508945,27.2008534 L3.15301559,31.4146077 C3.30509348,34.7517989 3.4967611,37.2524276 3.72801843,38.9164939 C3.95927576,40.5805601 4.35096387,42.277604 4.90308274,44.0076256" id="Path-20" stroke="#120AB5" stroke-width="0.5"></path>
                    <path d="M1.09709961,7.22965918 C1.25355497,9.89857285 1.39099949,11.8403332 1.50943319,13.0549402 C1.68708372,14.8768508 1.59301861,18.3369845 1.50943319,20.948146 C1.47963913,21.8788953 1.64931423,23.6198931 2.01845847,26.1711394 L2.51609533,28.9880012 C2.76913682,32.6520471 2.9526585,35.3655106 3.06666037,37.1283918 C3.11324009,37.8486827 3.01155507,38.9058598 3.06666037,39.7995377 C3.11983541,40.6619114 3.25937159,42.0537087 3.48526891,43.9749297" id="Path-22" stroke="#FFDA56" stroke-width="0.5"></path>
                    <path d="M1.17502951,7.24602852 C1.4486008,8.6361744 1.58538644,9.65313239 1.58538644,10.2969025 C1.58538644,10.9406726 1.49947272,11.8323543 1.32764528,12.9719477 C1.39961227,13.9055307 1.48552599,14.5995195 1.58538644,15.0539141 C1.63780579,15.2924376 1.67768115,16.4368831 1.89186912,17.4311463 C2.02110022,18.0310386 2.31234037,19.0643654 2.76558959,20.5311266 C3.18502512,22.173001 3.44052397,23.3363491 3.53208612,24.0211707 C3.55708345,24.2081335 3.77110605,24.9716668 3.89957512,26.0439711 C4.04723351,27.2764446 4.0624336,30.3514108 4.57488155,34.9759738 C4.67149519,35.8478591 4.44220849,37.2531718 4.67478343,38.8228103 C4.76935021,39.4610376 4.91659207,40.5608067 5.2333644,41.8701483 C5.34265193,42.3218756 5.55581374,43.0473378 5.87284982,44.0465348" id="Path-21" stroke="#132054" stroke-width="0.5"></path>
                    <g id="Tassel-metal" transform="translate(0.000000, 5.000000)">
                        <g id="path-5-link" fill="#8C7A3A">
                            <path d="M0.649315614,0.63405714 C0.739193611,0.5971188 0.853216185,0.58240239 0.991383338,0.58990792 C1.12955049,0.59741344 1.24769481,0.65698779 1.3458163,0.76863096 L1.22320598,2.18984304 C1.07631584,2.12850659 0.961595791,2.08970076 0.879045835,2.07342556 C0.796495879,2.05715036 0.680415839,2.07558696 0.530805713,2.12873537 L0.649315614,0.63405714 Z" id="path-5"></path>
                        </g>
                        <path d="M1.08600007,0.87164976 C1.11090418,0.88656858 1.13458506,0.90698943 1.15803411,0.93366988 L1.3458163,0.76863096 L1.09674149,0.74714286 L1.08600007,0.87164976 Z M1.0019665,1.84570745 L0.974131166,2.16835495 L1.22320598,2.18984304 L1.31953674,1.95914761 C1.19543976,1.90732882 1.09038122,1.86953451 1.0019665,1.84570745 Z M0.806254782,1.81766043 C0.700131887,1.81901932 0.58166248,1.84536231 0.447118028,1.89315869 L0.530805713,2.12873537 L0.780023577,2.14849533 L0.806254782,1.81766043 Z M0.883857408,0.83891559 L0.898533479,0.6538171 L0.649315614,0.63405714 L0.744348529,0.86529024 C0.779181397,0.85097452 0.825693388,0.84174044 0.883857408,0.83891559 Z M0.883857408,0.83891559 C0.912378543,0.83753041 0.943701408,0.83768632 0.97782281,0.83953987 C1.01759956,0.84170062 1.05288145,0.85181005 1.08600007,0.87164976 L1.0019665,1.84570745 C0.975659878,1.83861802 0.9508267,1.83276509 0.927403893,1.82814715 C0.888821981,1.8205405 0.848517443,1.81711926 0.806254782,1.81766043 L0.883857408,0.83891559 Z" id="Shape" stroke="#979797" stroke-width="0.5"></path>
                    </g>
                </g>
                <path id="Line" d="M267.48392,108.974817 L280.072606,88.2405109 L280.332095,87.8131172 L281.186883,88.3320953 L280.927394,88.7594891 L268.338708,109.493795 L271.757858,111.569708 L263.240511,116.927394 L264.06477,106.898905 L267.48392,108.974817 Z" fill="#F8E71C" fill-rule="nonzero"></path>
                <text id="one-trusty-dragon-bo" font-family="Helvetica" font-size="12" font-weight="normal" fill="#FFFFFF">
                    <tspan x="286.007917" y="50">one trusty </tspan>
                    <tspan x="286.007917" y="64">dragon boat </tspan>
                    <tspan x="286.007917" y="78">paddle</tspan>
                </text>
                <text id="one-B.S.-in-Cognitiv" font-family="Helvetica" font-size="12" font-weight="normal" fill="#FFFFFF">
                    <tspan x="0" y="38">one B.S. in </tspan>
                    <tspan x="0" y="52">Cognitive </tspan>
                    <tspan x="0" y="66">Science with </tspan>
                    <tspan x="0" y="80">specialization in </tspan>
                    <tspan x="0" y="94">HCI</tspan>
                </text>
                <path id="Line-2" d="M49.0218083,130.834132 C42.0362331,130.634334 36.8810746,129.237165 33.5586097,126.61668 C29.0107953,123.029741 25.8438071,115.529648 24.0063577,104.117595 L23.9268765,103.623953 L24.9141612,103.464991 L24.9936423,103.958633 C26.7949051,115.145937 29.8734162,122.436498 34.177888,125.831508 C37.2944742,128.289613 42.2299252,129.631896 48.9864945,129.832677 L48.8467213,125.868069 L57.9996895,130.048161 L49.1638346,134.86248 L49.0218083,130.834132 Z" fill="#F8E71C" fill-rule="nonzero"></path>
            </g>
        </g>
    </g>
</svg>